<svg id="Capa_1" enable-background="new 0 0 512 512" height="512" viewBox="0 0 512 512" width="512" xmlns="http://www.w3.org/2000/svg"><g><path d="m474.5 43.5h-38.16c-4.142 0-7.5 3.358-7.5 7.5s3.358 7.5 7.5 7.5h38.16c12.407 0 22.5 10.093 22.5 22.5v232.5h-335.99c-4.142 0-7.5 3.358-7.5 7.5s3.358 7.5 7.5 7.5h335.99v12.5c0 12.407-10.093 22.5-22.5 22.5h-437c-12.407 0-22.5-10.093-22.5-22.5v-12.5h113.32c4.142 0 7.5-3.358 7.5-7.5s-3.358-7.5-7.5-7.5h-113.32v-232.5c0-12.407 10.093-22.5 22.5-22.5h366.16c4.142 0 7.5-3.358 7.5-7.5s-3.358-7.5-7.5-7.5h-366.16c-20.678 0-37.5 16.822-37.5 37.5v260c0 20.678 16.822 37.5 37.5 37.5h151v45h-57.5c-12.407 0-22.5 10.093-22.5 22.5s10.093 22.5 22.5 22.5h250c12.407 0 22.5-10.093 22.5-22.5s-10.093-22.5-22.5-22.5h-57.5v-5.5c0-4.142-3.358-7.5-7.5-7.5s-7.5 3.358-7.5 7.5v5.5h-105v-45h105v6.81c0 4.142 3.358 7.5 7.5 7.5s7.5-3.358 7.5-7.5v-6.81h151c20.678 0 37.5-16.822 37.5-37.5v-260c0-20.678-16.822-37.5-37.5-37.5zm-158.5 395h65c4.136 0 7.5 3.364 7.5 7.5s-3.364 7.5-7.5 7.5h-250c-4.136 0-7.5-3.364-7.5-7.5s3.364-7.5 7.5-7.5h65z"/><path d="m358.153 98.18h-40c-4.142 0-7.5 3.358-7.5 7.5s3.358 7.5 7.5 7.5h21.89l-91.106 91.106c-4.265-2.722-9.323-4.307-14.748-4.307-5.703 0-11.006 1.746-15.403 4.73l-16.355-16.355c1.659-3.537 2.592-7.48 2.592-11.638 0-15.164-12.336-27.5-27.5-27.5s-27.5 12.336-27.5 27.5c0 3.862.804 7.538 2.247 10.876l-44.568 44.567c-4.032-2.322-8.702-3.659-13.681-3.659-15.164 0-27.5 12.336-27.5 27.5s12.336 27.5 27.5 27.5 27.5-12.336 27.5-27.5c0-4.745-1.208-9.212-3.332-13.112l43.622-43.622c4.458 3.116 9.874 4.951 15.713 4.951 5.554 0 10.725-1.66 15.054-4.503l16.525 16.525c-1.545 3.435-2.412 7.237-2.412 11.241 0 15.164 12.336 27.5 27.5 27.5s27.5-12.336 27.5-27.5c0-4.292-.99-8.357-2.751-11.981l91.715-91.715v21.897c0 4.142 3.358 7.5 7.5 7.5s7.5-3.358 7.5-7.5v-40c-.002-4.143-3.36-7.501-7.502-7.501zm-264.132 170.32c-6.893 0-12.5-5.607-12.5-12.5s5.607-12.5 12.5-12.5 12.5 5.607 12.5 12.5-5.608 12.5-12.5 12.5zm71.002-91.783c0-6.893 5.607-12.5 12.5-12.5s12.5 5.607 12.5 12.5-5.607 12.5-12.5 12.5-12.5-5.608-12.5-12.5zm69.166 63.262c-6.893 0-12.5-5.607-12.5-12.5s5.607-12.5 12.5-12.5 12.5 5.607 12.5 12.5-5.607 12.5-12.5 12.5z"/><g><path d="m437.979 218.5h-109.333c-4.142 0-7.5-3.358-7.5-7.5s3.358-7.5 7.5-7.5h109.333c4.142 0 7.5 3.358 7.5 7.5s-3.357 7.5-7.5 7.5z"/></g><g><path d="m437.979 251.167h-109.333c-4.142 0-7.5-3.358-7.5-7.5s3.358-7.5 7.5-7.5h109.333c4.142 0 7.5 3.358 7.5 7.5s-3.357 7.5-7.5 7.5z"/></g><g><path d="m402.646 283.833h-74c-4.142 0-7.5-3.358-7.5-7.5s3.358-7.5 7.5-7.5h74c4.142 0 7.5 3.358 7.5 7.5s-3.357 7.5-7.5 7.5z"/></g></g></svg>