<svg id="Capa_1" enable-background="new 0 0 512.001 512.001" height="512" viewBox="0 0 512.001 512.001" width="512" xmlns="http://www.w3.org/2000/svg"><g><path d="m378.731 163.772v-88.977c0-17.92-14.579-32.5-32.5-32.5h-15.051c-3.142 0-5.829 1.934-6.945 4.675-.007.016-.018.029-.025.046-29.884 74.894-83.743 109.776-169.499 109.776-.023 0-.045.003-.068.003h-28.703c-4.142 0-7.5 3.358-7.5 7.5s3.358 7.5 7.5 7.5h21.27v116.51h-72.126v-116.51h18.177c4.142 0 7.5-3.358 7.5-7.5s-3.358-7.5-7.5-7.5h-25.68c-.002 0-.004 0-.007 0-.025 0-.049-.004-.074-.004-37.22 0-67.5 30.28-67.5 67.5v11.513c0 34.713 26.342 63.379 60.084 67.084v36.813c0 2.208.973 4.303 2.659 5.728 1.364 1.153 3.082 1.772 4.841 1.772.416 0 .834-.035 1.25-.105l3.072-.519 8.992 41.833c.87 4.05 4.858 6.627 8.909 5.756 4.049-.871 6.627-4.859 5.756-8.909l-8.852-41.184 21.282-3.597v30.533c0 6.896 5.611 12.507 12.507 12.507h16.83v71.187h-26.84l-7.897-36.756c-.87-4.049-4.857-6.629-8.908-5.757-4.049.87-6.627 4.858-5.757 8.908l9.17 42.681c.742 3.456 3.797 5.924 7.333 5.924h40.4c4.142 0 7.5-3.358 7.5-7.5v-129.22l3.631-.614c3.608-.61 6.25-3.735 6.25-7.395v-21.576c76.694 1.946 124.05 34.327 162.266 110.274.006.013.018.022.025.034 1.24 2.431 3.762 4.099 6.678 4.099h15.051c17.921 0 32.5-14.58 32.5-32.5v-34.78c0-4.142-3.357-7.5-7.5-7.5s-7.5 3.358-7.5 7.5v34.78c0 9.649-7.851 17.5-17.5 17.5h-7.551v-345.51h7.551c9.649 0 17.5 7.851 17.5 17.5v243.04c0 4.142 3.357 7.5 7.5 7.5s7.5-3.358 7.5-7.5v-21.51c19.53-4.837 33.992-22.69 33.992-43.354v-45.844c0-20.665-14.463-38.518-33.993-43.355zm-216.519 47.239h38.074v38.075h-38.074zm-15 107.625-4.28.724-14.39 2.432-52.061 8.798c-.014.002-.027.007-.041.009l-1.356.229v-27.523h72.127v15.331zm-132.212-82.831v-11.513c0-26.408 19.6-48.325 45.081-51.968v115.459c-25.449-3.615-45.081-25.547-45.081-51.978zm107.994 132.713v-30.576l.01-.002 14.325-2.421v32.998h-14.335zm39.218-80.122v-24.31h45.574c4.142 0 7.5-3.358 7.5-7.5v-53.075c0-4.142-3.358-7.5-7.5-7.5h-45.574v-24.304c76.18-1.733 128.313-30.229 161.469-88.766v298.445c-38.677-62.798-88.481-91.197-161.469-92.99zm235.512-35.425c0 12.432-7.875 23.335-18.992 27.665v-101.175c11.117 4.33 18.992 15.234 18.992 27.665z"/><path d="m452.455 65.921-34.697 34.697c-2.929 2.929-2.929 7.678 0 10.606 1.465 1.464 3.385 2.197 5.304 2.197s3.839-.732 5.304-2.197l34.697-34.697c2.929-2.929 2.929-7.678 0-10.606-2.93-2.929-7.678-2.929-10.608 0z"/><path d="m474.465 200.405c1.43 0 2.875-.408 4.153-1.261l30.042-20.028c3.446-2.297 4.378-6.954 2.08-10.4s-6.954-4.377-10.4-2.08l-30.042 20.028c-3.446 2.297-4.378 6.954-2.08 10.4 1.445 2.168 3.823 3.341 6.247 3.341z"/><path d="m508.66 280.981-30.042-20.028c-3.445-2.297-8.102-1.367-10.4 2.08-2.298 3.446-1.366 8.103 2.08 10.4l30.042 20.028c1.278.853 2.724 1.261 4.153 1.261 2.424 0 4.802-1.173 6.247-3.341 2.298-3.446 1.366-8.103-2.08-10.4z"/><path d="m428.365 348.872c-2.93-2.929-7.678-2.929-10.607 0s-2.929 7.678 0 10.606l34.697 34.697c1.465 1.464 3.385 2.197 5.304 2.197s3.839-.732 5.304-2.197c2.929-2.929 2.929-7.678 0-10.606z"/></g></svg>