<svg width="1000" height="302" viewBox="0 0 1000 302" fill="none" xmlns="http://www.w3.org/2000/svg">
<g clip-path="url(#clip0)">
<path fill-rule="evenodd" clip-rule="evenodd" d="M620.38 235.668C562.268 278.501 478.039 301.354 405.519 301.354C303.834 301.354 212.292 263.745 143.037 201.193C137.596 196.274 142.471 189.57 149.001 193.401C223.74 236.887 316.153 263.048 411.613 263.048C475.993 263.048 546.815 249.728 611.935 222.087C621.773 217.908 630 228.529 620.38 235.668" fill="#FF9900"/>
<path fill-rule="evenodd" clip-rule="evenodd" d="M644.54 208.027C637.14 198.538 595.439 203.543 576.721 205.763C571.019 206.46 570.148 201.497 575.285 197.928C608.498 174.553 662.996 181.3 669.352 189.135C675.707 197.014 667.698 251.643 636.487 277.717C631.699 281.722 627.128 279.589 629.261 274.279C636.269 256.78 651.984 217.56 644.54 208.027" fill="#FF9900"/>
<path fill-rule="evenodd" clip-rule="evenodd" d="M578.026 32.9086V10.1863C578.026 6.74748 580.637 4.44043 583.772 4.44043H685.5C688.764 4.44043 691.376 6.79102 691.376 10.1863V29.6439C691.333 32.9086 688.59 37.1745 683.715 43.9216L631.001 119.184C650.589 118.705 671.266 121.621 689.026 131.633C693.03 133.897 694.119 137.205 694.423 140.47V164.716C694.423 168.024 690.767 171.898 686.936 169.896C655.639 153.485 614.068 151.7 579.462 170.07C575.936 171.985 572.236 168.154 572.236 164.846V141.819C572.236 138.119 572.28 131.807 575.98 126.192L637.052 38.611H583.902C580.637 38.611 578.026 36.3039 578.026 32.9086Z" fill="#E6E6E6"/>
<path fill-rule="evenodd" clip-rule="evenodd" d="M206.939 174.684H175.989C173.029 174.466 170.679 172.246 170.461 169.417V10.5781C170.461 7.40042 173.116 4.8757 176.424 4.8757H205.284C208.288 5.0062 210.682 7.31333 210.9 10.1863V30.9498H211.466C218.996 10.8827 233.143 1.52393 252.209 1.52393C271.58 1.52393 283.681 10.8827 292.387 30.9498C299.874 10.8827 316.894 1.52393 335.133 1.52393C348.104 1.52393 362.295 6.87804 370.957 18.8921C380.751 32.2557 378.749 51.6697 378.749 68.6897L378.705 168.938C378.705 172.115 376.05 174.684 372.742 174.684H341.836C338.745 174.466 336.264 171.985 336.264 168.938V84.7521C336.264 78.0486 336.874 61.3333 335.394 54.978C333.087 44.3133 326.165 41.3098 317.198 41.3098C309.711 41.3098 301.876 46.3156 298.698 54.3251C295.521 62.3345 295.826 75.7415 295.826 84.7521V168.938C295.826 172.115 293.17 174.684 289.862 174.684H258.956C255.822 174.466 253.384 171.985 253.384 168.938L253.341 84.7521C253.341 67.0356 256.257 40.9615 234.275 40.9615C212.032 40.9615 212.902 66.3827 212.902 84.7521V168.938C212.902 172.115 210.247 174.684 206.939 174.684Z" fill="#E6E6E6"/>
<path fill-rule="evenodd" clip-rule="evenodd" d="M778.958 1.52393C824.881 1.52393 849.736 40.9615 849.736 91.1074C849.736 139.556 822.269 177.992 778.958 177.992C733.861 177.992 709.311 138.554 709.311 89.4097C709.311 39.9603 734.166 1.52393 778.958 1.52393ZM779.219 33.9533C756.409 33.9533 754.973 65.0332 754.973 84.4038C754.973 103.818 754.668 145.258 778.958 145.258C802.942 145.258 804.074 111.827 804.074 91.4556C804.074 78.0486 803.508 62.0297 799.46 49.3192C795.977 38.2627 789.056 33.9533 779.219 33.9533Z" fill="#E6E6E6"/>
<path fill-rule="evenodd" clip-rule="evenodd" d="M909.286 174.684H878.467C875.376 174.466 872.895 171.985 872.895 168.938L872.852 10.0557C873.113 7.13921 875.681 4.8757 878.815 4.8757H907.501C910.2 5.0062 912.42 6.83452 913.029 9.31569V33.6051H913.595C922.257 11.8839 934.402 1.52393 955.775 1.52393C969.661 1.52393 983.198 6.52981 991.904 20.2416C1000 32.9521 1000 54.3251 1000 69.6909V169.678C999.653 172.464 997.084 174.684 994.037 174.684H963.001C960.171 174.466 957.821 172.377 957.516 169.678V83.4027C957.516 66.0344 959.518 40.6133 938.146 40.6133C930.615 40.6133 923.694 45.6627 920.255 53.3239C915.902 63.0309 915.336 72.6944 915.336 83.4027V168.938C915.293 172.115 912.594 174.684 909.286 174.684Z" fill="#E6E6E6"/>
<path fill-rule="evenodd" clip-rule="evenodd" d="M496.93 98.8117C496.93 110.869 497.235 120.925 491.141 131.633C486.222 140.339 478.387 145.693 469.725 145.693C457.841 145.693 450.876 136.639 450.876 123.275C450.876 96.8964 474.513 92.1081 496.93 92.1081V98.8117ZM528.141 174.248C526.095 176.076 523.135 176.207 520.828 174.988C510.555 166.456 508.683 162.495 503.068 154.355C486.092 171.68 474.034 176.86 452.052 176.86C425.977 176.86 405.736 160.797 405.736 128.629C405.736 103.513 419.318 86.4058 438.732 78.0482C455.534 70.6481 478.996 69.3423 496.93 67.2964V63.2917C496.93 55.9352 497.496 47.2294 493.143 40.8741C489.4 35.1717 482.174 32.8211 475.775 32.8211C463.979 32.8211 453.488 38.8717 450.92 51.4082C450.397 54.1941 448.352 56.9364 445.522 57.067L415.53 53.8458C413.006 53.28 410.176 51.2341 410.916 47.36C417.794 10.9694 450.702 0 480.128 0C495.189 0 514.864 4.00471 526.748 15.4094C541.809 29.4694 540.373 48.2305 540.373 68.6458V116.876C540.373 131.372 546.38 137.727 552.038 145.562C553.997 148.348 554.433 151.7 551.908 153.789C545.596 159.056 534.365 168.85 528.184 174.335L528.141 174.248Z" fill="#E6E6E6"/>
<path fill-rule="evenodd" clip-rule="evenodd" d="M91.194 98.8117C91.194 110.869 91.4987 120.925 85.4046 131.633C80.4858 140.339 72.694 145.693 63.9881 145.693C52.1046 145.693 45.1835 136.639 45.1835 123.275C45.1835 96.8964 68.8199 92.1081 91.194 92.1081V98.8117ZM122.405 174.248C120.359 176.076 117.399 176.207 115.092 174.988C104.819 166.456 102.99 162.495 97.3316 154.355C80.3552 171.68 68.3411 176.86 46.3152 176.86C20.2847 176.86 0 160.797 0 128.629C0 103.513 13.6247 86.4058 32.9952 78.0482C49.7976 70.6481 73.2599 69.3423 91.194 67.2964V63.2917C91.194 55.9352 91.7599 47.2294 87.4505 40.8741C83.6634 35.1717 76.4376 32.8211 70.0823 32.8211C58.2858 32.8211 47.7517 38.8717 45.1835 51.4082C44.6611 54.1941 42.6152 56.9364 39.8294 57.067L9.79411 53.8458C7.2694 53.28 4.48352 51.2341 5.17999 47.36C12.1012 10.9694 44.9658 0 74.3917 0C89.4528 0 109.128 4.00471 121.012 15.4094C136.073 29.4694 134.636 48.2305 134.636 68.6458V116.876C134.636 131.372 140.643 137.727 146.302 145.562C148.305 148.348 148.74 151.7 146.215 153.789C139.903 159.056 128.673 168.85 122.492 174.335L122.405 174.248Z" fill="#E6E6E6"/>
</g>
<defs>
<clipPath id="clip0">
<rect width="1000" height="301.354" fill="white"/>
</clipPath>
</defs>
</svg>
