<svg width="416" height="80" viewBox="0 0 416 80" fill="none" xmlns="http://www.w3.org/2000/svg">
<mask id="mask0" mask-type="alpha" maskUnits="userSpaceOnUse" x="0" y="0" width="405" height="80">
<path d="M0 0.299805H404.4V79.9998H0.1L0 0.299805Z" fill="white"/>
</mask>
<g mask="url(#mask0)">
<path fill-rule="evenodd" clip-rule="evenodd" d="M397.301 65.1999C395.701 65.1999 394.301 63.8999 394.301 62.3999V8.7999C394.301 7.0999 395.601 5.8999 397.301 5.8999H401.401C403.101 5.8999 404.401 7.1999 404.401 8.7999V62.3999C404.401 63.8999 403.101 65.1999 401.401 65.1999H397.401" fill="#E6E6E6"/>
<path fill-rule="evenodd" clip-rule="evenodd" d="M66.6 6.8998V3.9998C66.6 3.0185 66.2102 2.07739 65.5163 1.38351C64.8224 0.689625 63.8813 0.299805 62.9 0.299805H53.6C52.6187 0.299805 51.6776 0.689625 50.9837 1.38351C50.2898 2.07739 49.9 3.0185 49.9 3.9998V5.9998H12C7.2 5.9998 0 9.39981 0 18.1998V67.9998C0 72.7998 3.2 79.9998 12 79.9998H62C66.8 79.9998 74 76.7998 74 67.9998V17.9998C74 14.1998 72 8.9998 66.6 6.9998" fill="#FF2636"/>
<path fill-rule="evenodd" clip-rule="evenodd" d="M60.6003 40.7996H54.6003C54.0168 40.7996 53.4572 41.0314 53.0446 41.444C52.6321 41.8565 52.4003 42.4161 52.4003 42.9996C52.4003 43.5831 52.6321 44.1427 53.0446 44.5552C53.4572 44.9678 54.0168 45.1996 54.6003 45.1996H60.6003C61.1837 45.1996 61.7433 44.9678 62.1559 44.5552C62.5685 44.1427 62.8003 43.5831 62.8003 42.9996C62.8003 42.4161 62.5685 41.8565 62.1559 41.444C61.7433 41.0314 61.1837 40.7996 60.6003 40.7996V40.7996ZM51.0003 36.7996C51.1185 37.0743 51.2916 37.322 51.5088 37.5275C51.726 37.7331 51.9828 37.8922 52.2636 37.9951C52.5443 38.0981 52.8432 38.1427 53.1418 38.1263C53.4404 38.1099 53.7325 38.0327 54.0003 37.8996L59.5003 35.3996C59.786 35.2972 60.0474 35.1368 60.2682 34.9285C60.4889 34.7202 60.6641 34.4685 60.7829 34.1892C60.9016 33.9099 60.9613 33.609 60.9581 33.3055C60.9549 33.002 60.889 32.7025 60.7644 32.4257C60.6399 32.149 60.4594 31.9009 60.2344 31.6973C60.0094 31.4936 59.7446 31.3388 59.4568 31.2424C59.169 31.146 58.8644 31.1102 58.5621 31.1373C58.2598 31.1643 57.9664 31.2537 57.7003 31.3996L52.1003 33.8996C51.5888 34.1577 51.1982 34.605 51.0115 35.1466C50.8247 35.6881 50.8566 36.2812 51.1003 36.7996H51.0003ZM50.4003 31.4996L54.4003 26.8996C54.6246 26.6952 54.8043 26.4466 54.9279 26.1694C55.0516 25.8923 55.1165 25.5925 55.1187 25.289C55.1208 24.9855 55.0602 24.6848 54.9405 24.4059C54.8209 24.127 54.6448 23.8758 54.4234 23.6683C54.202 23.4607 53.94 23.3012 53.654 23.1997C53.3679 23.0983 53.064 23.0572 52.7612 23.0789C52.4585 23.1006 52.1636 23.1847 51.8949 23.326C51.6263 23.4672 51.3898 23.6625 51.2003 23.8996L47.0003 28.5996C46.6166 29.0376 46.4222 29.6098 46.4596 30.1909C46.4971 30.772 46.7635 31.3145 47.2003 31.6996C47.6201 32.0659 48.1632 32.2593 48.72 32.2407C49.2768 32.2221 49.8058 31.993 50.2003 31.5996" fill="#FFFFFE"/>
<path fill-rule="evenodd" clip-rule="evenodd" d="M44.5004 58.9997C44.41 58.7229 44.2655 58.4668 44.0754 58.2462C43.8853 58.0256 43.6533 57.845 43.3928 57.7147C43.1324 57.5845 42.8487 57.5073 42.5581 57.4875C42.2676 57.4678 41.976 57.5059 41.7004 57.5997C39.5762 58.3119 37.3222 58.552 35.0956 58.3033C32.8691 58.0546 30.7236 57.3231 28.8089 56.1598C26.8942 54.9966 25.2563 53.4295 24.0096 51.568C22.7629 49.7066 21.9374 47.5955 21.5907 45.3821C21.2439 43.1687 21.3842 40.9063 22.0019 38.7527C22.6196 36.5992 23.6997 34.6063 25.1669 32.9132C26.6341 31.2201 28.4531 29.8675 30.4969 28.9498C32.5407 28.032 34.7601 27.5713 37.0004 27.5997C38.5991 27.6208 40.1847 27.8907 41.7004 28.3997C41.976 28.4935 42.2676 28.5317 42.5581 28.5119C42.8487 28.4922 43.1324 28.415 43.3928 28.2847C43.6533 28.1545 43.8853 27.9738 44.0754 27.7533C44.2655 27.5327 44.41 27.2766 44.5004 26.9997L46.4004 21.1997C46.4942 20.9241 46.5323 20.6325 46.5125 20.342C46.4928 20.0514 46.4156 19.7677 46.2853 19.5072C46.1551 19.2468 45.9745 19.0148 45.7539 18.8247C45.5333 18.6345 45.2772 18.4901 45.0004 18.3997C42.413 17.5832 39.7134 17.1782 37.0004 17.1997C33.2232 17.1427 29.4792 17.9125 26.031 19.4554C22.5828 20.9982 19.5138 23.2767 17.0393 26.131C14.5647 28.9854 12.7445 32.3465 11.7063 35.9786C10.6681 39.6108 10.437 43.4261 11.0292 47.1571C11.6214 50.888 13.0226 54.4442 15.1345 57.5764C17.2465 60.7085 20.018 63.3407 23.2547 65.2885C26.4915 67.2363 30.1152 68.4525 33.8717 68.8517C37.6281 69.251 41.4265 68.8237 45.0004 67.5997C45.5365 67.4165 45.9813 67.0336 46.2421 66.5306C46.5028 66.0277 46.5596 65.4435 46.4004 64.8997L44.5004 58.9997Z" fill="#FFFFFE"/>
<path fill-rule="evenodd" clip-rule="evenodd" d="M50.3994 54.5997C50.0016 54.1621 49.4463 53.9005 48.8555 53.8723C48.2648 53.8442 47.6871 54.0519 47.2494 54.4497C46.8118 54.8475 46.5502 55.4029 46.5221 55.9937C46.4939 56.5844 46.7016 57.1621 47.0994 57.5997L51.0994 62.0997C51.4973 62.5506 52.0579 62.825 52.658 62.8625C53.2581 62.9 53.8486 62.6975 54.2994 62.2997C54.7503 61.9019 55.0247 61.3413 55.0622 60.7411C55.0997 60.141 54.8973 59.5506 54.4994 59.0997L50.3994 54.5997ZM59.4994 50.5997L53.8994 48.1997C53.3784 48.013 52.8061 48.0296 52.2967 48.2461C51.7873 48.4627 51.3783 48.8633 51.1512 49.368C50.924 49.8727 50.8955 50.4445 51.0713 50.9694C51.247 51.4942 51.6141 51.9336 52.0994 52.1997L57.6994 54.6997C58.2205 54.8864 58.7928 54.8698 59.3022 54.6533C59.8115 54.4368 60.2206 54.0362 60.4477 53.5314C60.6749 53.0267 60.7034 52.4549 60.5276 51.93C60.3519 51.4052 59.9847 50.9659 59.4994 50.6997" fill="#FFFFFE"/>
<path fill-rule="evenodd" clip-rule="evenodd" d="M223.001 29.9999C219.601 29.9999 216.501 31.2999 214.101 33.6999C212.922 34.878 211.996 36.2832 211.377 37.8303C210.758 39.3774 210.46 41.0341 210.501 42.6999C210.501 46.2999 211.701 49.2999 214.101 51.6999C216.501 54.1999 219.601 55.3999 223.101 55.3999C226.601 55.3999 229.501 54.1999 232.001 51.6999C234.401 49.2999 235.701 46.1999 235.701 42.6999C235.701 39.1999 234.401 36.1999 232.001 33.6999C230.835 32.4987 229.434 31.5503 227.886 30.9138C226.337 30.2772 224.675 29.9661 223.001 29.9999V29.9999ZM223.001 65.1999C220.034 65.2264 217.091 64.6633 214.344 63.5432C211.597 62.4231 209.099 60.7684 206.997 58.6751C204.894 56.5818 203.228 54.0916 202.096 51.3492C200.964 48.6068 200.387 45.6668 200.401 42.6999C200.401 39.7414 200.987 36.8122 202.125 34.0813C203.263 31.3505 204.931 28.8722 207.032 26.7896C209.133 24.7069 211.626 23.0611 214.367 21.9473C217.108 20.8334 220.042 20.2735 223.001 20.2999C225.968 20.2481 228.916 20.7972 231.665 21.9143C234.415 23.0313 236.91 24.6932 239.001 26.7999C243.501 30.9999 245.701 36.3999 245.701 42.7999C245.701 49.0999 243.501 54.3999 239.101 58.7999C236.99 60.9008 234.475 62.5514 231.707 63.6515C228.94 64.7516 225.978 65.2784 223.001 65.1999V65.1999ZM269.201 65.1999C264.101 65.1999 259.801 63.5999 256.501 60.1999C253.201 56.8999 251.501 52.5999 251.501 47.3999V24.6999C251.501 23.9043 251.817 23.1412 252.379 22.5786C252.942 22.016 253.705 21.6999 254.501 21.6999H258.501C259.296 21.6999 260.059 22.016 260.622 22.5786C261.185 23.1412 261.501 23.9043 261.501 24.6999V47.4999C261.501 52.1999 264.701 55.2999 269.201 55.2999C273.901 55.2999 277.001 52.1999 277.001 47.4999V24.6999C277.001 23.9043 277.317 23.1412 277.879 22.5786C278.442 22.016 279.205 21.6999 280.001 21.6999H284.101C284.896 21.6999 285.659 22.016 286.222 22.5786C286.785 23.1412 287.101 23.9043 287.101 24.6999V47.3999C287.101 52.5999 285.401 56.8999 282.101 60.2999C278.801 63.5999 274.501 65.2999 269.201 65.2999V65.1999ZM307.001 65.2999C301.601 65.2999 297.001 63.2999 293.401 59.6999C291.901 58.1999 291.801 56.6999 293.201 55.0999L294.101 54.0999C294.901 53.0999 295.801 52.5999 296.701 52.5999C297.501 52.5999 298.301 52.9999 299.101 53.5999C301.701 55.7999 304.401 56.8999 306.901 56.8999C309.901 56.8999 311.901 55.1999 311.901 52.5999C311.901 50.0999 310.101 48.5999 304.701 46.1999C297.001 42.9999 293.001 38.3999 293.001 32.5999C293.001 25.4999 299.001 20.2999 307.401 20.2999C311.401 20.2999 314.901 21.2999 318.101 23.2999C318.901 23.8999 319.401 24.5999 319.601 25.4999C319.701 26.4999 319.401 27.4999 318.801 28.2999L318.001 29.3999C317.201 30.3999 316.301 30.8999 315.301 30.8999C314.701 30.8999 314.101 30.6999 313.401 30.3999C311.401 29.1999 309.501 28.5999 307.801 28.5999C304.601 28.5999 302.801 29.8999 302.801 32.2999C302.801 34.4999 304.801 36.2999 309.201 38.1999C317.901 41.8999 321.601 45.9999 321.601 52.0999C321.601 55.8999 320.201 59.0999 317.401 61.4999C314.552 64.0467 310.818 65.3751 307.001 65.1999V65.2999ZM378.701 65.1999C377.101 65.1999 375.701 63.8999 375.701 62.3999V8.7999C375.701 7.0999 377.001 5.8999 378.701 5.8999H382.801C384.501 5.8999 385.801 7.1999 385.801 8.7999V62.3999C385.801 63.8999 384.401 65.1999 382.801 65.1999H378.801H378.701ZM200.101 22.3999C200.003 22.3297 199.903 22.263 199.801 22.1999C198.301 21.3999 196.601 20.9999 194.801 20.9999C191.101 20.9999 188.001 22.7999 185.601 26.1999C185.601 26.1999 184.901 27.0999 184.901 26.1999V24.4999C184.901 23.7999 184.701 23.1999 184.101 22.5999C183.601 22.0999 183.101 21.8999 182.301 21.8999H177.601C176.901 21.8999 176.301 22.0999 175.701 22.5999C175.201 23.0999 175.001 23.5999 175.001 24.3999V62.5999C175.001 63.2999 175.201 63.9999 175.701 64.3999C176.301 64.8999 176.901 65.1999 177.601 65.1999H182.601C183.201 65.1999 183.801 64.9999 184.301 64.4999C184.901 63.9999 185.101 63.3999 185.101 62.4999V43.2999C185.101 39.2999 186.001 36.2999 187.701 33.8999C189.401 31.5999 191.401 30.3999 193.701 30.3999C194.401 30.3999 195.001 30.4999 195.701 30.6999C196.501 30.8999 197.301 30.4999 197.701 29.6999L200.701 24.1999C201.001 23.5999 200.701 22.7999 200.101 22.4999V22.3999ZM132.801 42.8999C132.746 44.5609 133.031 46.2157 133.638 47.7627C134.246 49.3096 135.163 50.7162 136.333 51.896C137.504 53.0759 138.903 54.0041 140.445 54.6238C141.987 55.2436 143.639 55.5417 145.301 55.4999C148.701 55.4999 151.701 54.1999 154.201 51.7999C156.601 49.3999 157.801 46.3999 157.801 42.7999C157.801 39.2999 156.601 36.2999 154.201 33.7999C153.03 32.6119 151.626 31.6788 150.077 31.0593C148.528 30.4398 146.868 30.1472 145.201 30.1999C141.801 30.1999 138.801 31.3999 136.301 33.8999C135.118 35.0745 134.188 36.4791 133.569 38.027C132.949 39.575 132.654 41.2334 132.701 42.8999H132.301H132.701H132.801ZM144.001 65.1999C141.15 65.2625 138.319 64.7149 135.698 63.5939C133.076 62.4728 130.725 60.8042 128.801 58.6999C124.801 54.2999 122.701 48.9999 122.701 42.6999C122.687 39.7245 123.267 36.7762 124.405 34.0271C125.544 31.2781 127.218 28.7834 129.332 26.6888C131.445 24.5941 133.954 22.9415 136.713 21.8274C139.472 20.7133 142.426 20.16 145.401 20.1999C148.375 20.1611 151.327 20.726 154.077 21.8604C156.827 22.9948 159.319 24.6752 161.401 26.7999C165.901 30.9999 168.101 36.3999 168.101 42.7999V62.1999C168.101 62.9956 167.785 63.7586 167.222 64.3212C166.659 64.8838 165.896 65.1999 165.101 65.1999H161.601C159.901 65.1999 158.601 64.0999 158.601 62.1999V58.4999C158.601 58.4999 158.601 58.1999 158.301 58.1999C158.301 58.1999 158.001 58.2999 157.801 58.5999C154.501 62.9999 149.801 65.1999 144.001 65.1999V65.1999ZM347.801 29.1999C342.501 29.1999 338.801 31.5999 336.801 36.4999C336.601 36.5999 336.701 36.7999 336.701 36.7999C336.74 36.8693 336.799 36.9254 336.87 36.961C336.941 36.9967 337.022 37.0102 337.101 36.9999H358.901V36.4999C356.901 31.4999 353.301 29.0999 347.901 29.0999L347.801 29.1999ZM348.101 65.1999C345.126 65.2398 342.172 64.6865 339.413 63.5724C336.654 62.4583 334.145 60.8057 332.032 58.711C329.918 56.6164 328.244 54.1217 327.105 51.3727C325.967 48.6236 325.387 45.6753 325.401 42.6999C325.401 36.3999 327.601 31.0999 331.801 26.7999C336.201 22.4999 341.601 20.2999 347.801 20.2999C354.101 20.2999 359.401 22.2999 363.601 26.4999C367.801 30.6999 369.901 35.6999 369.901 41.5999C369.901 43.3999 368.501 44.6999 366.501 44.6999H336.201L335.901 44.7999V45.3999C336.301 48.1999 337.601 50.5999 339.901 52.6999C342.201 54.6999 344.901 55.6999 348.101 55.6999C352.101 55.6999 355.301 54.1999 357.901 51.1999C358.701 50.1999 359.601 49.7999 360.601 49.7999C361.301 49.7999 361.901 49.9999 362.601 50.2999L365.201 51.4999C366.201 51.9999 366.901 52.7999 367.001 53.6999C367.201 54.4999 367.001 55.3999 366.301 55.9999C364.272 58.9266 361.545 61.3007 358.367 62.9072C355.189 64.5137 351.66 65.3018 348.101 65.1999ZM109.201 64.4999H109.701H109.201ZM112.001 64.5999H111.701H112.001ZM114.001 20.9999H113.901H114.101H114.001ZM116.901 54.9999H116.701H116.801H116.901ZM120.901 60.9999L119.201 56.0999C118.801 55.0999 117.901 54.4999 116.801 54.4999C116.531 54.4914 116.261 54.5252 116.001 54.5999C114.705 55.0011 113.357 55.2034 112.001 55.1999C108.601 55.1999 105.301 53.8999 102.901 51.5999C101.701 50.4692 100.746 49.1055 100.092 47.5922C99.4388 46.079 99.1014 44.4482 99.1008 42.7999C99.1008 35.8999 104.901 30.2999 112.101 30.2999C113.457 30.2964 114.805 30.4987 116.101 30.8999L116.801 30.9999C117.801 30.9999 118.801 30.3999 119.201 29.3999L120.801 24.3999C120.986 23.8413 120.95 23.2329 120.701 22.6999C120.558 22.3888 120.35 22.1118 120.091 21.8876C119.833 21.6633 119.529 21.4971 119.201 21.3999C116.865 20.7029 114.438 20.3657 112.001 20.3999C99.2008 20.3999 88.8008 30.3999 88.8008 42.7999C88.9321 48.8386 91.4439 54.5808 95.7891 58.7762C100.134 62.9716 105.961 65.2805 112.001 65.1999C114.476 65.2119 116.939 64.8409 119.301 64.0999C119.602 64.0021 119.88 63.8457 120.121 63.6397C120.361 63.4338 120.558 63.1823 120.701 62.8999C121.001 62.2999 121.001 61.5999 120.801 60.9999H120.901Z" fill="#E6E6E6"/>
</g>
</svg>
