<svg xmlns="http://www.w3.org/2000/svg" xmlns:xlink="http://www.w3.org/1999/xlink" viewBox="0 0 416 80"><defs><path id="a" d="M0 .3h404.4V80H.1z"/></defs><g fill="none" fill-rule="evenodd"><mask id="b" fill="#fff"><use xlink:href="#a"/></mask><path fill="#686968" d="M397.3 65.2c-1.6 0-3-1.3-3-2.8V8.8c0-1.7 1.3-2.9 3-2.9h4.1c1.7 0 3 1.3 3 2.9v53.6c0 1.5-1.3 2.8-3 2.8h-4" mask="url(#b)"/><path fill="#FF2636" d="M66.6 6.9V4A3.7 3.7 0 0062.9.3h-9.3A3.7 3.7 0 0049.9 4v2H12C7.2 6 0 9.4 0 18.2V68C0 72.8 3.2 80 12 80H62c4.8 0 12-3.2 12-12V18C74 14.2 72 9 66.6 7" mask="url(#b)"/><path fill="#FFFFFE" d="M60.6 40.8h-6a2.2 2.2 0 100 4.4h6a2.2 2.2 0 100-4.4m-9.6-4a2.2 2.2 0 003 1.1l5.5-2.5a2.2 2.2 0 10-1.8-4l-5.6 2.5a2.2 2.2 0 00-1 2.9m-.7-5.3l4-4.6a2.2 2.2 0 10-3.2-3L47 28.6a2.2 2.2 0 00.2 3.1 2.2 2.2 0 003-.1"/><path fill="#FFFFFE" d="M44.5 59a2.2 2.2 0 00-2.8-1.4 15.4 15.4 0 11-4.7-30 15.4 15.4 0 014.7.8 2.2 2.2 0 002.8-1.4l1.9-5.8a2.2 2.2 0 00-1.4-2.8 25.9 25.9 0 00-8-1.2 25.9 25.9 0 108 50.4 2.2 2.2 0 001.4-2.7L44.5 59"/><path fill="#FFFFFE" d="M50.4 54.6a2.2 2.2 0 00-3.3 3l4 4.5a2.2 2.2 0 003.4-3l-4.1-4.5m9.1-4l-5.6-2.4a2.2 2.2 0 00-1.8 4l5.6 2.5a2.2 2.2 0 001.8-4"/><path fill="#686968" d="M223 30c-3.4 0-6.5 1.3-8.9 3.7a12.3 12.3 0 00-3.6 9c0 3.6 1.2 6.6 3.6 9 2.4 2.5 5.5 3.7 9 3.7s6.4-1.2 8.9-3.7c2.4-2.4 3.7-5.5 3.7-9s-1.3-6.5-3.7-9a12.2 12.2 0 00-9-3.7zm0 35.2a22.4 22.4 0 01-22.6-22.5A22.4 22.4 0 01223 20.3a22 22 0 0116 6.5c4.5 4.2 6.7 9.6 6.7 16 0 6.3-2.2 11.6-6.6 16a22 22 0 01-16.1 6.4zm46.2 0c-5.1 0-9.4-1.6-12.7-5-3.3-3.3-5-7.6-5-12.8V24.7a3 3 0 013-3h4a3 3 0 013 3v22.8c0 4.7 3.2 7.8 7.7 7.8 4.7 0 7.8-3.1 7.8-7.8V24.7a3 3 0 013-3h4.1a3 3 0 013 3v22.7c0 5.2-1.7 9.5-5 12.9-3.3 3.3-7.6 5-12.9 5m37.8 0c-5.4 0-10-2-13.6-5.6-1.5-1.5-1.6-3-.2-4.6l.9-1c.8-1 1.7-1.5 2.6-1.5.8 0 1.6.4 2.4 1 2.6 2.2 5.3 3.3 7.8 3.3 3 0 5-1.7 5-4.3 0-2.5-1.8-4-7.2-6.4C297 43 293 38.4 293 32.6c0-7.1 6-12.3 14.4-12.3 4 0 7.5 1 10.7 3 .8.6 1.3 1.3 1.5 2.2.1 1-.2 2-.8 2.8l-.8 1.1c-.8 1-1.7 1.5-2.7 1.5-.6 0-1.2-.2-1.9-.5-2-1.2-3.9-1.8-5.6-1.8-3.2 0-5 1.3-5 3.7 0 2.2 2 4 6.4 5.9 8.7 3.7 12.4 7.8 12.4 13.9 0 3.8-1.4 7-4.2 9.4a14.6 14.6 0 01-10.4 3.7m71.7 0c-1.6 0-3-1.3-3-2.8V8.8c0-1.7 1.3-2.9 3-2.9h4.1c1.7 0 3 1.3 3 2.9v53.6c0 1.5-1.4 2.8-3 2.8h-4M200.1 22.4a5.1 5.1 0 00-.3-.2c-1.5-.8-3.2-1.2-5-1.2-3.7 0-6.8 1.8-9.2 5.2 0 0-.7.9-.7 0v-1.7c0-.7-.2-1.3-.8-1.9-.5-.5-1-.7-1.8-.7h-4.7c-.7 0-1.3.2-1.9.7-.5.5-.7 1-.7 1.8v38.2c0 .7.2 1.4.7 1.8.6.5 1.2.8 1.9.8h5c.6 0 1.2-.2 1.7-.7.6-.5.8-1.1.8-2V43.3c0-4 .9-7 2.6-9.4 1.7-2.3 3.7-3.5 6-3.5.7 0 1.3.1 2 .3.8.2 1.6-.2 2-1l3-5.5c.3-.6 0-1.4-.6-1.7m-67.3 20.4a12.2 12.2 0 0012.5 12.6c3.4 0 6.4-1.3 8.9-3.7 2.4-2.4 3.6-5.4 3.6-9 0-3.5-1.2-6.5-3.6-9a12.1 12.1 0 00-9-3.6c-3.4 0-6.4 1.2-8.9 3.7a12.2 12.2 0 00-3.6 9h-.4.4zM144 65.2a20 20 0 01-15.2-6.5c-4-4.4-6.1-9.7-6.1-16a22.4 22.4 0 0122.7-22.5 22 22 0 0116 6.6c4.5 4.2 6.7 9.6 6.7 16v19.4a3 3 0 01-3 3h-3.5c-1.7 0-3-1.1-3-3v-3.7s0-.3-.3-.3c0 0-.3.1-.5.4-3.3 4.4-8 6.6-13.8 6.6zm203.8-36c-5.3 0-9 2.4-11 7.3-.2.1-.1.3-.1.3a.4.4 0 00.4.2H358.9v-.5c-2-5-5.6-7.4-11-7.4zm.3 36a22.4 22.4 0 01-22.7-22.5c0-6.3 2.2-11.6 6.4-15.9 4.4-4.3 9.8-6.5 16-6.5 6.3 0 11.6 2 15.8 6.2 4.2 4.2 6.3 9.2 6.3 15.1 0 1.8-1.4 3.1-3.4 3.1h-30.3l-.3.1v.6c.4 2.8 1.7 5.2 4 7.3 2.3 2 5 3 8.2 3 4 0 7.2-1.5 9.8-4.5.8-1 1.7-1.4 2.7-1.4.7 0 1.3.2 2 .5l2.6 1.2c1 .5 1.7 1.3 1.8 2.2.2.8 0 1.7-.7 2.3a21.4 21.4 0 01-18.2 9.2zm-227.8-2.9zm-1.2 1.3zm-9.9.9h.5-.5zm-.8-.2h0zm3.6.3h-.3.3zm2-43.6h-.1.2zm2.9 34h-.2.1zm4 6l-1.7-4.9c-.4-1-1.3-1.6-2.4-1.6a2.6 2.6 0 00-.8.1 13.4 13.4 0 01-4 .6c-3.4 0-6.7-1.3-9.1-3.6a12.1 12.1 0 01-3.8-8.8c0-6.9 5.8-12.5 13-12.5a13.4 13.4 0 014 .6l.7.1c1 0 2-.6 2.4-1.6l1.6-5a2.3 2.3 0 00-.1-1.7 2.4 2.4 0 00-1.5-1.3 24 24 0 00-7.2-1c-12.8 0-23.2 10-23.2 22.4A22.9 22.9 0 00112 65.2a24 24 0 007.3-1.1 2.4 2.4 0 001.4-1.2c.3-.6.3-1.3.1-1.9z"/></g></svg>