<svg width="1176" height="359" viewBox="0 0 1176 359" fill="none" xmlns="http://www.w3.org/2000/svg">
<g clip-path="url(#clip0)">
<path d="M176.969 0C78.3885 0 0 80.488 0 178.531C0 277.648 78.3885 358.156 176.969 358.156C276.069 358.156 353.406 277.663 353.406 178.562C353.423 80.5192 276.069 0 176.969 0ZM176.969 75.7812C257.461 75.7812 316.426 126.898 341.344 178.562C316.426 231.016 257.461 282.375 176.969 282.375C95.9568 282.375 37.4634 230.999 12.5625 178.562C37.4634 126.915 95.9736 75.8125 176.969 75.8125V75.7813V75.7812ZM176.969 83.9062C124.532 83.9062 81.7812 126.347 81.7812 178.531C81.7812 231.504 124.532 273.719 176.969 273.719C229.405 273.719 271.594 231.502 271.594 178.562C271.594 126.378 229.405 83.9062 176.969 83.9062Z" fill="#E6E6E6"/>
<path d="M522.594 21.25C430.037 21.25 365.531 91.5102 365.531 176.969V178C365.531 264.516 431.352 332.969 520.25 332.969C578.19 332.969 612.808 312.245 643.75 278.937L601.531 236.5C577.922 257.978 556.66 271.906 522.312 271.906C470.665 271.906 434.75 228.6 434.75 176.969V176.187C434.75 124.54 471.453 82.3125 522.312 82.3125C552.465 82.3125 576.066 95.1633 599.406 116.406L641.625 67.625C613.569 40.1064 579.493 21.25 522.594 21.25Z" fill="#E6E6E6"/>
<path d="M668.719 26.4688V327.687H812.125C880.015 327.687 924.844 300.193 924.844 245.156V244.094C924.844 203.722 903.37 183.513 868.469 170.156C889.98 158.108 908.062 139.236 908.062 105.156V104.375C908.062 83.6354 901.237 66.8623 887.344 52.9687C870.061 35.9374 843.052 26.4688 808.687 26.4688H668.719ZM733.187 84.4062H798.75C826.805 84.4062 842.25 95.678 842.25 115.344V116.406C842.25 138.69 823.646 148.125 794.281 148.125L733.187 148.156V84.4062V84.4062ZM733.187 203.219H810.031C843.825 203.219 859.031 215.814 859.031 236V237.031C859.031 259.315 841.221 269.531 812.125 269.531L733.187 269.562V203.219V203.219Z" fill="#E6E6E6"/>
<path d="M1054.81 22.0312C993.466 22.0312 949.437 58.2001 949.437 112.969V113.781C949.437 173.584 988.738 190.373 1049.31 205.844C1099.65 218.932 1110.12 227.314 1110.12 244.094V245.156C1110.12 262.708 1093.59 273.469 1066.59 273.469C1031.98 273.469 1003.67 259.283 976.656 237L937.344 283.937C973.521 316.188 1019.66 331.937 1065.28 331.937V331.906C1130.3 331.906 1175.91 298.329 1175.91 238.594V237.813C1175.91 185.125 1141.31 163.318 1080.22 147.344C1028.32 133.954 1015.19 127.416 1015.19 107.75V106.969C1015.19 92.2866 1028.56 80.5 1054 80.5C1079.44 80.5 1105.66 91.7519 1132.41 110.344L1166.75 60.3125C1136.33 35.9317 1098.86 22.0312 1054.81 22.0312Z" fill="#E6E6E6"/>
</g>
<defs>
<clipPath id="clip0">
<rect width="1175.91" height="358.156" fill="white"/>
</clipPath>
</defs>
</svg>
