<svg width="360" height="191" viewBox="0 0 360 191" fill="none" xmlns="http://www.w3.org/2000/svg">
<path d="M0 178.159C0.440993 176.119 0.920138 174.083 1.32298 172.034C3.37983 161.521 5.41535 150.999 7.46434 140.481C7.51147 140.235 7.60797 139.998 7.69774 139.705C8.01979 139.688 8.34184 139.658 8.66501 139.658C13.4486 139.658 18.2367 139.638 23.0203 139.671C26.0781 139.693 29.0943 140.065 31.9692 141.185C32.6391 141.444 33.2798 141.779 34.1158 142.16C31.6213 144.561 29.238 146.855 26.8546 149.154C26.8927 149.226 26.9309 149.302 26.969 149.379C30.4981 148.102 34.0216 146.83 37.5978 145.537C38.7928 147.267 39.3741 149.171 39.5357 151.161C39.9508 156.343 39.2686 161.369 36.9739 166.085C33.4998 173.235 27.6143 177.167 19.8739 178.057C15.391 178.571 10.8273 178.366 6.30183 178.443C4.20346 178.476 2.09949 178.4 0 178.375L0 178.159ZM13.6944 169.143C17.9988 169.779 21.5021 168.638 23.9707 165.685C26.9096 162.174 27.7837 158.03 27.2316 153.573C26.8882 150.761 24.8998 148.968 22.0497 148.751C20.8961 148.666 19.7291 148.738 18.5756 148.68C17.9012 148.645 17.6431 148.878 17.5152 149.557C16.8419 153.187 16.1114 156.805 15.3989 160.427C14.8311 163.328 14.2633 166.233 13.6944 169.143" fill="#D82128"/>
<path d="M191.317 190.345C190.592 190.15 189.871 189.938 189.137 189.773C188.446 189.611 188.191 189.294 188.37 188.539C188.883 186.354 189.37 184.161 189.778 181.956C189.923 181.189 190.261 181.032 190.944 181.057C191.958 181.1 192.976 181.048 193.989 181.07C195.719 181.108 196.839 180.128 197.709 178.81C197.883 178.543 197.814 178.046 197.73 177.69C195.512 168.618 194.842 159.385 194.833 150.08C194.833 149.906 194.863 149.732 194.888 149.465H205.958C206.089 155.292 206.22 161.09 206.356 166.887C206.492 166.905 206.623 166.918 206.759 166.934C206.916 166.629 207.107 166.341 207.221 166.022C209.13 160.823 211.046 155.628 212.905 150.411C213.176 149.639 213.489 149.338 214.33 149.355C217.302 149.406 220.279 149.372 223.253 149.377C223.601 149.377 223.949 149.41 224.356 149.432C224.313 149.682 224.313 149.825 224.262 149.953C220.742 158.965 217.086 167.919 212.018 176.21C209.893 179.678 207.535 182.983 204.452 185.697C201.699 188.131 198.574 189.781 194.854 190.15C194.689 190.167 194.528 190.278 194.363 190.345H191.317Z" fill="#D82128"/>
<path d="M359.999 161.619C359.778 162.823 359.587 164.036 359.329 165.232C357.42 174.045 351.08 179.253 342.067 179.444C339.557 179.496 337.072 179.36 334.663 178.562C330.711 177.248 328.323 174.198 328.025 170.034C327.631 164.512 328.649 159.338 332.046 154.838C335.287 150.542 339.841 148.76 345.053 148.404C347.628 148.23 350.198 148.366 352.692 149.121C356.818 150.375 359.201 153.125 359.778 157.42C359.813 157.662 359.923 157.899 359.999 158.137V161.619ZM348.378 161.36C348.378 160.928 348.409 160.491 348.374 160.063C348.213 157.963 347.335 157.179 345.232 157.225C343.595 157.26 342.407 158.103 341.572 159.414C339.841 162.145 339.315 165.182 339.54 168.354C339.637 169.732 340.503 170.44 341.894 170.606C344.04 170.864 345.516 169.889 346.55 168.112C347.759 166.03 348.197 163.731 348.378 161.36" fill="#D82128"/>
<path d="M204.494 -0.000230247C226.628 0.0760739 245.484 15.751 249.564 37.538C254.212 62.3481 237.536 86.3357 212.679 90.933C203.676 92.5994 194.774 94.8256 185.829 96.8152C172.995 99.6698 160.166 102.54 147.337 105.404C147.019 105.476 146.693 105.573 146.374 105.552C145.539 105.501 145.268 104.737 145.768 103.847C147.563 100.657 149.386 97.4851 151.145 94.2747C151.405 93.8045 151.6 93.0493 151.4 92.6297C151.048 91.8823 150.272 92.2347 149.658 92.4299C135.118 97.0183 120.58 101.616 106.042 106.21C105.872 106.265 105.69 106.37 105.525 106.353C105.071 106.303 104.626 106.201 104.176 106.12C104.328 105.721 104.383 105.225 104.655 104.928C109.838 99.2962 115.046 93.6901 120.249 88.0783C125.284 82.654 130.318 77.2342 135.352 71.8143C135.501 71.6527 135.657 71.5001 135.789 71.3262C136.467 70.4442 136.179 69.698 135.068 69.5791C133.986 69.4601 132.896 69.4265 131.81 69.3625C128.952 69.1931 126.094 69.0573 123.235 68.8407C122.675 68.7981 122.136 68.476 121.585 68.2853C121.823 67.7601 121.941 67.1239 122.315 66.7244C129.796 58.6709 137.303 50.6467 144.806 42.6179C153.474 33.3436 162.122 24.0513 170.807 14.7972C178.636 6.45869 188.247 1.62797 199.618 0.343138C201.234 0.161355 202.866 0.109738 204.494 -0.000230247V-0.000230247ZM183.836 30.2645C182.759 30.2723 182.466 30.9041 182.928 31.969C184.845 36.3497 186.732 40.7439 188.713 45.091C189.172 46.0965 189.082 46.5924 188.166 47.2747C171.592 59.6169 155.052 71.9961 138.516 84.3843C138.13 84.6772 137.88 85.1563 137.566 85.5468C138.083 85.4829 138.656 85.5379 139.119 85.3392C158.364 77.1107 177.602 68.8665 196.83 60.592C197.602 60.261 198.005 60.3418 198.54 60.9825C201.691 64.7741 204.885 68.5355 208.095 72.2766C208.384 72.611 208.982 72.9892 209.316 72.8994C209.652 72.8108 209.974 72.1958 210.076 71.7549C211.174 66.9196 212.247 62.0766 213.274 57.2245C213.422 56.5165 213.749 56.1641 214.372 55.9184C216.527 55.0622 218.668 54.1791 220.818 53.3061C223.265 52.3096 225.722 51.3334 228.151 50.2909C228.563 50.1125 229.092 49.6581 229.118 49.2979C229.144 48.95 228.601 48.5517 228.279 48.1959C228.164 48.068 227.973 48.0086 227.817 47.9154C223.749 45.5444 219.686 43.1565 215.606 40.8079C214.957 40.4298 214.601 40.0359 214.55 39.2302C214.24 34.386 213.884 29.5385 213.489 24.6999C213.443 24.1613 213.04 23.6485 212.803 23.1222C212.307 23.3511 211.721 23.4745 211.327 23.8224C207.7 27.0025 204.104 30.2129 200.521 33.4412C199.957 33.945 199.456 34.1189 198.675 33.9203C194.854 32.9273 191.017 32.0071 187.187 31.0657C186.024 30.7818 184.863 30.5102 183.836 30.2645" fill="#D82128"/>
<path d="M264.05 139.693H275.806C275.602 140.842 275.432 141.923 275.22 142.996C273.006 154.371 270.772 165.746 268.587 177.124C268.397 178.113 268.082 178.507 266.997 178.478C263.918 178.392 260.835 178.447 257.751 178.447H256.433C257.386 173.499 258.311 168.689 259.261 163.735H256.654C254.44 163.74 252.226 163.782 250.016 163.714C249.159 163.689 248.901 164.032 248.761 164.787C247.98 168.952 247.145 173.104 246.385 177.272C246.225 178.138 245.932 178.485 244.998 178.469C241.809 178.414 238.616 178.447 235.422 178.444C235.104 178.444 234.781 178.409 234.307 178.38C234.671 176.442 235.011 174.576 235.376 172.71C237.454 162.043 239.549 151.385 241.606 140.715C241.754 139.952 241.975 139.616 242.836 139.629C246.135 139.684 249.435 139.65 252.734 139.654C253.018 139.654 253.306 139.688 253.689 139.714C252.789 144.311 251.907 148.845 251.004 153.48C251.454 153.514 251.767 153.552 252.081 153.552C254.804 153.561 257.522 153.535 260.241 153.573C260.992 153.582 261.318 153.37 261.466 152.59C262.213 148.565 263.027 144.557 263.825 140.541C263.88 140.265 263.969 139.993 264.05 139.693" fill="#D82128"/>
<path d="M65.4669 169.765C65.4669 172.294 65.4927 174.791 65.4287 177.28C65.4197 177.544 64.9024 177.955 64.5759 178.01C61.5821 178.515 58.5883 179.155 55.5687 179.355C53.1 179.516 50.5595 179.325 48.1043 178.939C43.4599 178.214 41.017 175.635 40.5883 170.966C40.1137 165.757 41.0293 160.766 43.7393 156.219C46.7297 151.198 51.3057 148.776 57.0274 148.395C59.6094 148.221 62.1757 148.369 64.6612 149.193C67.5114 150.134 69.5974 151.868 70.1742 154.918C70.7812 158.128 69.9789 160.969 67.4429 163.179C65.0977 165.219 62.261 166.212 59.2795 166.758C57.0397 167.174 54.7585 167.382 52.4896 167.599C51.7602 167.666 51.5683 167.954 51.5604 168.603C51.5391 169.93 52.1664 170.719 53.5881 170.995C56.2049 171.496 58.7914 171.105 61.3655 170.669C62.7143 170.44 64.0418 170.083 65.4669 169.765V169.765ZM53.0663 160.723C54.8853 160.719 56.6661 160.592 58.3077 159.727C59.5376 159.074 60.0257 158.047 59.6397 157.089C59.2705 156.181 58.0957 155.728 56.8445 156.003C54.8774 156.436 53.1886 158.505 53.0663 160.723" fill="#D82128"/>
<path d="M162.126 169.822C162.126 172.256 162.1 174.686 162.143 177.112C162.155 177.85 161.673 177.968 161.194 178.046C158.194 178.525 155.2 179.152 152.185 179.364C149.819 179.526 147.393 179.343 145.043 178.983C140.14 178.232 137.736 175.823 137.269 170.911C136.73 165.203 137.859 159.779 141.218 155.003C144.225 150.732 148.525 148.752 153.635 148.4C156.214 148.222 158.78 148.366 161.27 149.176C164.157 150.114 166.261 151.861 166.855 154.961C167.486 158.282 166.562 161.149 163.925 163.341C161.27 165.546 158.063 166.454 154.747 167.002C152.893 167.307 151.01 167.464 149.132 167.608C148.461 167.658 148.262 167.934 148.224 168.528C148.134 169.851 148.818 170.878 150.285 170.963C152.405 171.09 154.552 171.06 156.668 170.861C158.453 170.696 160.213 170.199 162.126 169.822V169.822ZM149.683 160.932C151.328 160.618 152.846 160.394 154.326 160.021C154.886 159.876 155.438 159.464 155.853 159.04C156.947 157.917 156.43 156.297 154.883 155.991C154.407 155.898 153.868 155.944 153.389 156.059C151.485 156.513 149.971 158.396 149.683 160.932Z" fill="#D82128"/>
<path d="M286.074 167.746C285.638 169.798 286.21 170.736 288.161 171.032C291.71 171.571 295.154 170.851 298.586 170.04C298.934 169.955 299.277 169.862 299.735 169.743C299.735 172.326 299.764 174.824 299.697 177.317C299.688 177.577 299.153 177.984 298.815 178.039C295.893 178.535 292.974 179.15 290.027 179.357C287.661 179.523 285.226 179.392 282.88 179.019C277.549 178.162 275.331 175.804 274.882 170.468C274.428 165.129 275.526 160.06 278.486 155.531C281.486 150.943 285.909 148.673 291.286 148.444C293.679 148.343 296.151 148.577 298.491 149.097C301.723 149.819 304.006 151.808 304.556 155.286C305.109 158.754 303.925 161.571 301.138 163.678C298.526 165.659 295.455 166.516 292.278 167.016C290.243 167.338 288.181 167.504 286.074 167.746V167.746ZM287.325 160.722C289.158 160.731 290.874 160.591 292.466 159.811C292.907 159.595 293.326 159.251 293.636 158.873C294.463 157.868 294.141 156.566 292.914 156.146C292.338 155.951 291.622 155.939 291.015 156.075C289.11 156.499 287.673 158.327 287.325 160.722" fill="#D82128"/>
<path d="M120.179 149.421C120.407 155.325 120.632 161.042 120.862 166.755C120.865 166.802 120.958 166.843 121.129 166.996C121.709 165.647 122.342 164.362 122.829 163.027C124.369 158.811 125.882 154.586 127.346 150.341C127.605 149.595 127.94 149.345 128.72 149.354C132.088 149.392 135.455 149.371 138.916 149.371C138.835 149.714 138.814 149.96 138.725 150.176C134.971 159.528 130.811 168.688 125.968 177.532C125.586 178.227 125.166 178.481 124.369 178.473C120.488 178.43 116.608 178.456 112.727 178.456H111.501C111.06 175.534 110.569 172.687 110.212 169.829C109.419 163.451 109.144 157.047 109.211 150.622C109.223 149.617 109.533 149.333 110.513 149.349C113.448 149.404 116.387 149.366 119.326 149.371C119.678 149.374 120.03 149.412 120.179 149.421" fill="#D82128"/>
<path d="M72.3145 178.899C73.1706 174.891 73.9853 171.07 74.7999 167.25C76.7255 158.22 78.6634 149.195 80.5587 140.162C80.7494 139.249 81.1152 138.758 82.0264 138.444C85.5128 137.235 88.9611 135.929 92.6293 134.58C92.2523 136.42 91.9123 138.1 91.5566 139.776C88.8208 152.481 86.0896 165.188 83.3247 177.89C83.2439 178.259 82.8657 178.852 82.6155 178.857C79.2492 178.921 75.885 178.899 72.3145 178.899" fill="#D82128"/>
<path d="M319.46 153.068C321.996 149.701 325.046 147.537 329.651 148.611C328.634 152.229 327.628 155.799 326.602 159.446C326.081 159.391 325.618 159.375 325.168 159.29C323.018 158.9 321.415 159.706 320.24 161.486C319.036 163.319 318.6 165.409 318.197 167.513C317.544 170.893 316.898 174.274 316.203 177.642C316.14 177.95 315.716 178.412 315.452 178.417C311.979 178.469 308.502 178.451 304.846 178.451C305.21 176.522 305.545 174.685 305.902 172.857C307.335 165.461 308.798 158.068 310.194 150.664C310.384 149.646 310.749 149.298 311.796 149.348C313.68 149.443 315.566 149.374 317.454 149.374C318.964 149.379 318.96 149.379 319.045 150.94C319.079 151.614 319.134 152.288 319.181 152.963C319.274 152.996 319.367 153.035 319.46 153.068" fill="#D82128"/>
<path d="M181.596 153.326C184.348 149.78 187.368 147.487 191.999 148.64C191.469 150.536 190.952 152.368 190.438 154.204C190.028 155.667 189.578 157.122 189.23 158.603C189.051 159.344 188.696 159.51 188 159.387C187.364 159.272 186.703 159.192 186.057 159.225C184.518 159.315 183.458 160.223 182.631 161.444C181.253 163.484 180.871 165.859 180.417 168.208C179.818 171.3 179.234 174.392 178.64 177.488C178.543 178.001 178.462 178.463 177.74 178.458C174.369 178.429 170.998 178.438 167.626 178.429C167.525 178.429 167.422 178.37 167.215 178.306C167.74 175.584 168.257 172.857 168.788 170.138C170.064 163.598 171.362 157.063 172.604 150.519C172.77 149.628 173.097 149.327 174.008 149.356C176.036 149.425 178.067 149.411 180.099 149.361C180.931 149.339 181.384 149.506 181.367 150.459C181.35 151.282 181.49 152.104 181.596 153.326" fill="#D82128"/>
<path d="M89.6602 178.462C90.3727 174.794 91.0348 171.315 91.726 167.838C92.8582 162.12 94.0331 156.412 95.1395 150.687C95.3302 149.715 95.6444 149.317 96.7261 149.347C99.9444 149.432 103.168 149.377 106.56 149.377C106.183 151.395 105.831 153.295 105.463 155.191C104.033 162.549 102.582 169.899 101.179 177.261C101.005 178.165 100.666 178.505 99.7076 178.488C96.4164 178.424 93.1208 178.462 89.6602 178.462" fill="#D82128"/>
<path d="M108.811 140.243C108.79 144.229 106.092 146.82 102.016 146.782C98.4323 146.749 95.9985 144.399 96.0456 141.01C96.0961 137.13 98.8778 134.466 102.822 134.521C106.482 134.568 108.832 136.811 108.811 140.243Z" fill="#D82128"/>
</svg>
