<svg width="2448" height="700" viewBox="0 0 2448 700" fill="none" xmlns="http://www.w3.org/2000/svg">
<path fill-rule="evenodd" clip-rule="evenodd" d="M1642.65 124.983C1654.05 137.917 1668.25 144.384 1685.32 144.384C1702.39 144.384 1716.51 137.994 1727.76 125.212C1739.01 112.431 1744.63 96.8174 1744.63 78.4107V77.9897C1744.63 59.5829 1738.93 43.8931 1727.57 30.9586C1716.16 18.0241 1701.96 11.5569 1684.9 11.5569C1667.83 11.5569 1653.71 17.9476 1642.46 30.729C1631.21 43.5104 1625.58 59.1237 1625.58 77.5305V77.9514C1625.58 96.3582 1631.28 112.048 1642.65 124.983ZM2137.76 380.649C2146.14 389.145 2156.74 393.393 2169.56 393.393C2182.38 393.393 2192.94 389.221 2201.17 380.841C2209.39 372.46 2213.53 362.166 2213.53 349.959V349.538C2213.53 337.33 2209.36 326.96 2200.98 318.464C2192.6 309.969 2182 305.721 2169.18 305.721C2156.36 305.721 2145.79 309.892 2137.57 318.273C2129.34 326.654 2125.21 336.948 2125.21 349.155V349.538C2125.21 361.745 2129.38 372.116 2137.76 380.611V380.649ZM1675.29 660.31C1687 672.518 1701.62 678.641 1719.15 678.641C1736.67 678.641 1751.21 672.594 1762.77 660.502C1774.33 648.409 1780.15 633.676 1780.15 616.264V615.881C1780.15 598.47 1774.29 583.66 1762.58 571.453C1750.87 559.245 1736.25 553.122 1718.73 553.122C1701.2 553.122 1686.66 559.169 1675.1 571.261C1663.54 583.354 1657.73 598.087 1657.73 615.499V615.92C1657.73 633.332 1663.58 648.141 1675.29 660.349V660.31ZM1320.82 154.296C1298.12 154.296 1280.06 147.025 1266.63 132.483C1253.16 117.941 1246.46 99.9171 1246.46 78.4107V77.9897C1246.46 57.3251 1253.31 39.4541 1266.97 24.3383C1280.64 9.22253 1298.16 1.68378 1319.59 1.68378C1338.76 1.68378 1355.56 7.15607 1370.11 18.1389C1371.52 19.2487 1372.21 20.7411 1372.21 22.578C1372.21 24.1087 1371.64 25.4098 1370.53 26.4813C1369.42 27.5528 1368.12 28.0503 1366.74 28.0503C1365.63 28.0503 1364.48 27.5528 1363.37 26.5578C1350.55 16.5699 1335.74 11.5951 1318.98 11.5951C1301.38 11.5951 1286.8 18.0624 1275.24 30.9969C1263.68 43.9314 1257.9 59.4681 1257.9 77.607V78.028C1257.9 97.5828 1263.61 113.54 1275.01 125.977C1286.41 138.415 1301.84 144.652 1321.28 144.652C1330.15 144.652 1338.76 143.083 1347.18 139.907C1355.56 136.731 1362.64 132.713 1368.42 127.776V85.4137H1322.35C1320.93 85.4137 1319.75 84.9162 1318.75 83.9212C1317.76 82.9263 1317.26 81.74 1317.26 80.324C1317.26 78.9081 1317.76 77.7218 1318.75 76.7269C1319.75 75.7319 1320.93 75.2344 1322.35 75.2344H1373.47C1374.89 75.2344 1376.15 75.7702 1377.3 76.8034C1378.41 77.8749 1378.98 79.176 1378.98 80.7067V129.001C1378.98 131.105 1377.72 133.21 1375.2 135.315C1358.86 147.981 1340.75 154.296 1320.89 154.296H1320.82ZM756.904 176.453C756.904 149.206 761.61 125.136 771.063 104.241C780.476 83.3472 793.067 65.8971 808.795 51.9676C823.872 38.6504 841.016 28.5478 860.188 21.5448C879.36 14.58 898.686 11.0977 918.164 11.0977C937.642 11.0977 956.967 14.58 976.178 21.5448C995.35 28.5095 1012.8 38.6504 1028.53 51.9676C1043.61 65.8971 1055.89 83.3089 1065.3 104.241C1074.72 125.136 1079.46 149.244 1079.46 176.453V210.664H983.257V176.453C983.257 153.033 976.79 135.774 963.932 124.676C951.036 113.617 935.805 108.068 918.202 108.068C900.599 108.068 885.33 113.617 872.472 124.676C859.576 135.774 853.147 153.033 853.147 176.453V533.759C853.147 557.217 859.576 574.476 872.472 585.535C885.33 596.633 900.599 602.182 918.202 602.182C935.805 602.182 951.036 596.633 963.932 585.535C976.79 574.476 983.257 557.179 983.257 533.759V406.442H906.875V320.914H1079.46V533.759C1079.46 562.268 1074.76 586.645 1065.3 606.927C1055.89 627.209 1043.61 643.97 1028.53 657.287C1012.8 671.217 995.35 681.664 976.178 688.628C957.006 695.593 937.68 699.076 918.164 699.076C898.686 699.076 879.322 695.593 860.188 688.628C841.127 681.736 823.649 671.077 808.795 657.287C793.067 643.97 780.515 627.209 771.063 606.927C761.649 586.645 756.904 562.268 756.904 533.759V176.453ZM412.111 687.978V11.0977H701.262V102.366H509.12V307.711H676.541V398.98H509.12V687.978H412.073H412.111ZM323.138 533.721C323.138 562.23 318.431 586.607 308.979 606.888C299.565 627.17 286.975 643.932 271.247 657.249C256.17 671.178 239.026 681.625 219.854 688.59C200.681 695.555 181.356 699.037 161.84 699.037C142.361 699.037 123.036 695.555 103.826 688.59C84.6536 681.625 67.2035 671.178 51.4754 657.249C36.3979 643.932 24.114 627.17 14.7001 606.888C5.28622 586.607 0.541016 562.23 0.541016 533.721V320.875H173.129V406.404H96.7462V533.721C96.7462 557.179 103.213 574.437 116.071 585.497C128.968 596.594 144.198 602.143 161.801 602.143C179.405 602.143 194.673 596.594 207.531 585.497C220.428 574.437 226.857 557.14 226.857 533.721V176.414C226.857 152.995 220.428 135.736 207.531 124.638C194.673 113.579 179.405 108.03 161.801 108.03C144.198 108.03 128.968 113.579 116.071 124.638C103.175 135.736 96.7462 152.995 96.7462 176.414V210.626H0.541016V176.414C0.541016 149.168 5.24795 125.097 14.7001 104.203C24.114 83.3089 36.3979 65.8588 51.4754 51.9294C67.2035 38.6122 84.6536 28.5095 103.826 21.5448C122.998 14.58 142.323 11.0977 161.84 11.0977C181.318 11.0977 200.681 14.58 219.854 21.5448C239.026 28.5095 256.17 38.6504 271.247 51.9294C286.975 65.8588 299.527 83.2707 308.979 104.203C318.393 125.097 323.138 149.206 323.138 176.414V533.721ZM2313.94 406.251V293.399C2313.94 289.075 2315.55 285.401 2318.76 282.378C2321.98 279.355 2325.88 277.824 2330.47 277.824H2333.92C2340.35 277.824 2346.09 280.847 2351.1 286.932L2414.82 365.955V292.825C2414.82 288.501 2416.39 284.865 2419.56 281.88C2422.7 278.896 2426.56 277.403 2431.16 277.403C2435.75 277.403 2439.58 278.896 2442.75 281.88C2445.89 284.865 2447.46 288.501 2447.46 292.825V405.677C2447.46 410.001 2445.85 413.675 2442.64 416.736C2439.42 419.759 2435.52 421.29 2430.97 421.29H2429.89C2423.46 421.29 2417.72 418.267 2412.75 412.182L2346.66 330.327V406.289C2346.66 410.613 2345.09 414.249 2341.95 417.233C2338.82 420.218 2334.95 421.711 2330.36 421.711C2325.77 421.711 2321.94 420.218 2318.76 417.233C2315.63 414.249 2314.06 410.613 2314.06 406.289L2313.94 406.251ZM2224.93 400.625C2210.08 414.631 2191.49 421.634 2169.18 421.634C2146.87 421.634 2128.34 414.708 2113.61 400.817C2098.88 386.925 2091.53 369.973 2091.53 349.92V349.5C2091.53 329.447 2098.95 312.418 2113.8 298.412C2128.65 284.406 2147.25 277.403 2169.56 277.403C2191.87 277.403 2210.39 284.33 2225.12 298.221C2239.86 312.112 2247.2 329.065 2247.2 349.117V349.5C2247.2 369.552 2239.78 386.581 2224.89 400.625H2224.93ZM1991.42 406.059V293.016C1991.42 288.692 1993.07 285.018 1996.28 281.957C1999.53 278.934 2003.48 277.403 2008.11 277.403C2012.74 277.403 2016.68 278.934 2019.89 281.957C2023.15 284.98 2024.79 288.692 2024.79 293.016V406.059C2024.79 410.384 2023.15 414.057 2019.89 417.119C2016.64 420.142 2012.7 421.673 2008.11 421.673C2003.48 421.673 1999.53 420.142 1996.28 417.119C1993.03 414.095 1991.42 410.384 1991.42 406.059V406.059ZM1791.24 406.059V293.016C1791.24 288.692 1792.81 285.018 1795.91 281.957C1799.01 278.934 1802.76 277.403 1807.16 277.403C1811.56 277.403 1815.31 278.934 1818.41 281.957C1821.51 284.98 1823.08 288.692 1823.08 293.016V334.766H1881.78V293.016C1881.78 288.692 1883.35 285.018 1886.45 281.957C1889.55 278.934 1893.3 277.403 1897.7 277.403C1902.1 277.403 1905.85 278.934 1908.95 281.957C1912.05 284.98 1913.58 288.692 1913.58 293.016V406.059C1913.58 410.384 1912.05 414.057 1908.95 417.119C1905.85 420.142 1902.1 421.673 1897.7 421.673C1893.3 421.673 1889.55 420.142 1886.45 417.119C1883.35 414.095 1881.78 410.384 1881.78 406.059V363.506H1823.08V406.059C1823.08 410.384 1821.51 414.057 1818.41 417.119C1815.31 420.142 1811.56 421.673 1807.16 421.673C1802.76 421.673 1799.01 420.142 1795.91 417.119C1792.81 414.095 1791.24 410.384 1791.24 406.059V406.059ZM1661.32 421.673C1641.62 421.673 1623.86 416.047 1608.06 404.835C1604.15 402.156 1602.16 398.291 1602.16 393.201C1602.16 389.183 1603.58 385.816 1606.41 383.099C1609.24 380.343 1612.69 379.004 1616.74 379.004C1619.99 379.004 1622.94 379.922 1625.66 381.798C1637.25 390.216 1649.35 394.426 1661.94 394.426C1668.29 394.426 1673.3 393.24 1676.94 390.905C1680.57 388.571 1682.41 385.318 1682.41 381.185V380.764C1682.41 376.746 1680.53 373.532 1676.75 371.044C1672.96 368.557 1665.34 365.878 1653.86 362.931C1645.75 360.942 1639.21 358.952 1634.23 357.038C1629.22 355.087 1624.47 352.523 1619.96 349.308C1615.44 346.094 1612.11 342.152 1610.05 337.407C1607.94 332.662 1606.91 326.883 1606.91 320.072V319.689C1606.91 306.984 1611.54 296.767 1620.8 289.036C1630.06 281.306 1641.96 277.403 1656.54 277.403C1673.3 277.403 1688.26 281.536 1701.51 289.84C1706.1 292.519 1708.39 296.575 1708.39 302.047C1708.39 306.066 1706.98 309.433 1704.15 312.15C1701.31 314.905 1697.87 316.245 1693.81 316.245C1691.1 316.245 1688.49 315.518 1685.89 314.025C1675.1 307.749 1665.15 304.611 1656.12 304.611C1650.3 304.611 1645.83 305.759 1642.65 308.017C1639.47 310.313 1637.9 313.222 1637.9 316.819V317.24C1637.9 321.794 1639.86 325.199 1643.8 327.457C1647.7 329.715 1655.97 332.47 1668.52 335.685C1683.9 339.703 1695.27 344.793 1702.54 350.992C1709.81 357.191 1713.48 366.108 1713.48 377.741V378.124C1713.48 391.747 1708.74 402.386 1699.21 410.077C1689.68 417.769 1677.09 421.596 1661.44 421.596L1661.32 421.673ZM1453.72 361.516H1494.21L1473.96 315.059L1453.72 361.516ZM1401.98 407.207C1401.98 405.447 1402.6 403.266 1403.86 400.549L1454.75 289.687C1458.5 281.498 1464.78 277.403 1473.54 277.403H1475.42C1484.03 277.403 1490.23 281.498 1493.98 289.687L1544.88 400.549C1545.98 402.96 1546.56 405.026 1546.56 406.786C1546.56 410.958 1545.1 414.478 1542.16 417.348C1539.25 420.218 1535.61 421.673 1531.33 421.673C1524.25 421.673 1519.08 418.114 1515.91 410.996L1506.11 388.877H1441.86L1431.64 412.029C1428.73 418.458 1423.8 421.673 1416.83 421.673C1412.66 421.673 1409.14 420.257 1406.31 417.463C1403.48 414.631 1402.02 411.225 1402.02 407.207H1401.98ZM1246.27 405.944V293.169C1246.27 288.807 1247.84 285.095 1250.9 282.033C1254 278.972 1257.75 277.441 1262.15 277.441H1343.05C1347.03 277.441 1350.44 278.857 1353.27 281.612C1356.1 284.406 1357.52 287.774 1357.52 291.715C1357.52 295.657 1356.1 299.024 1353.27 301.818C1350.44 304.611 1347.03 305.989 1343.05 305.989H1278.03V336.412H1333.75C1337.73 336.412 1341.14 337.828 1343.97 340.583C1346.8 343.377 1348.18 346.744 1348.18 350.686C1348.18 354.627 1346.76 357.995 1343.97 360.789C1341.14 363.582 1337.73 364.96 1333.75 364.96H1278.03V405.83C1278.03 410.192 1276.5 413.904 1273.4 416.966C1270.3 420.027 1266.55 421.558 1262.15 421.558C1257.75 421.558 1254 420.027 1250.9 416.966C1247.8 413.904 1246.27 410.192 1246.27 405.83V405.944ZM2080.55 623.879H2122.11C2136.23 623.879 2147.63 620.665 2156.28 614.236C2164.93 607.807 2169.25 599.273 2169.25 588.635V588.214C2169.25 577.154 2165.12 568.621 2156.81 562.613C2148.51 556.605 2137.38 553.582 2123.37 553.582H2080.51V623.879H2080.55ZM2069.3 682.697V549.104C2069.3 547.727 2069.87 546.502 2071.02 545.43C2072.17 544.321 2073.47 543.785 2074.92 543.785H2124.25C2141.13 543.785 2154.71 547.688 2165.04 555.457C2175.37 563.263 2180.5 573.978 2180.5 587.64V588.061C2180.5 602.526 2174.84 613.777 2163.51 621.775C2152.18 629.773 2138.14 633.753 2121.42 633.753H2080.51V682.735C2080.51 684.113 2079.94 685.337 2078.79 686.409C2077.64 687.519 2076.34 688.054 2074.88 688.054C2073.43 688.054 2072.13 687.519 2070.98 686.409C2069.83 685.337 2069.26 684.075 2069.26 682.735L2069.3 682.697ZM1930.27 688.016C1911.94 688.016 1897.17 682.697 1885.96 672.059C1874.74 661.42 1869.12 646.419 1869.12 627.056V548.989C1869.12 547.65 1869.65 546.425 1870.73 545.354C1871.8 544.282 1873.1 543.747 1874.67 543.747C1876.24 543.747 1877.54 544.282 1878.61 545.354C1879.68 546.425 1880.22 547.65 1880.22 548.989V626.061C1880.22 642.592 1884.69 655.489 1893.65 664.711C1902.6 673.934 1914.96 678.526 1930.73 678.526C1946.23 678.526 1958.36 674.125 1967.16 665.323C1975.96 656.522 1980.36 643.779 1980.36 627.094V549.028C1980.36 547.688 1980.9 546.464 1981.97 545.392C1983.04 544.321 1984.34 543.785 1985.91 543.785C1987.48 543.785 1988.78 544.321 1989.85 545.392C1990.92 546.464 1991.46 547.688 1991.46 549.028V625.908C1991.46 645.692 1985.91 660.999 1974.85 671.791C1963.75 682.62 1948.91 688.016 1930.31 688.016H1930.27ZM1770.92 666.701C1757.38 680.898 1739.96 688.016 1718.76 688.016C1697.53 688.016 1680.23 680.975 1666.8 666.892C1653.36 652.81 1646.67 635.934 1646.67 616.302V615.92C1646.67 596.25 1653.44 579.336 1666.99 565.1C1680.53 550.903 1697.95 543.785 1719.15 543.785C1740.35 543.785 1757.68 550.826 1771.11 564.909C1784.55 578.991 1791.24 595.867 1791.24 615.499V615.92C1791.24 635.589 1784.47 652.504 1770.92 666.739V666.701ZM1468.19 618.139H1516.25C1528.46 618.139 1538.45 615.193 1546.18 609.338C1553.91 603.483 1557.77 595.485 1557.77 585.382V584.961C1557.77 575.279 1554.17 567.626 1546.98 562C1539.79 556.413 1529.72 553.62 1516.82 553.62H1468.15V618.177L1468.19 618.139ZM1457.59 682.697V549.104C1457.59 547.727 1458.12 546.502 1459.23 545.43C1460.3 544.321 1461.53 543.785 1462.91 543.785H1517.51C1534.89 543.785 1548.28 548.492 1557.66 557.906C1564.85 565.138 1568.45 574.017 1568.45 584.54V584.961C1568.45 596.556 1564.66 605.855 1557.04 612.82C1549.43 619.785 1539.33 624.147 1526.7 625.946L1567.22 678.832C1568.29 680.21 1568.87 681.434 1568.87 682.506C1568.87 683.998 1568.33 685.299 1567.22 686.409C1566.15 687.519 1564.85 688.054 1563.36 688.054C1561.6 688.054 1560.03 687.098 1558.69 685.184L1514.91 627.821H1468.26V682.735C1468.26 684.113 1467.73 685.337 1466.62 686.409C1465.55 687.519 1464.32 688.054 1462.94 688.054C1461.57 688.054 1460.38 687.519 1459.27 686.409C1458.2 685.337 1457.62 684.075 1457.62 682.735L1457.59 682.697ZM1321.2 688.016C1298.35 688.016 1280.14 681.128 1266.59 667.39C1253.05 653.652 1246.27 636.623 1246.27 616.264V615.843C1246.27 596.327 1253.16 579.412 1266.94 565.138C1280.71 550.864 1298.35 543.708 1319.94 543.708C1339.22 543.708 1356.18 548.875 1370.79 559.245C1372.21 560.317 1372.94 561.694 1372.94 563.416C1372.94 564.87 1372.36 566.095 1371.25 567.09C1370.11 568.085 1368.84 568.583 1367.43 568.583C1366.28 568.583 1365.17 568.123 1364.02 567.167C1351.13 557.753 1336.2 553.008 1319.32 553.008C1301.57 553.008 1286.91 559.13 1275.28 571.338C1263.65 583.545 1257.83 598.24 1257.83 615.384V615.767C1257.83 634.212 1263.57 649.327 1275.05 661.114C1286.53 672.862 1302.07 678.755 1321.66 678.755C1330.61 678.755 1339.3 677.263 1347.72 674.278C1356.18 671.293 1363.29 667.466 1369.11 662.836V622.77H1322.69C1321.28 622.77 1320.05 622.31 1319.06 621.392C1318.06 620.474 1317.56 619.326 1317.56 617.986C1317.56 616.647 1318.06 615.537 1319.06 614.58C1320.05 613.662 1321.24 613.203 1322.69 613.203H1374.2C1375.62 613.203 1376.88 613.7 1378.03 614.695C1379.18 615.69 1379.71 616.915 1379.71 618.369V663.984C1379.71 665.974 1378.45 667.964 1375.88 669.954C1359.43 681.893 1341.18 687.901 1321.2 687.901V688.016ZM2236.11 138.95V5.35749C2236.11 3.97985 2236.68 2.75528 2237.83 1.68378C2238.98 0.612284 2240.28 0.0382678 2241.69 0.0382678C2243.11 0.0382678 2244.41 0.574017 2245.56 1.68378C2246.71 2.79355 2247.28 4.01812 2247.28 5.35749V134.435H2331.09C2332.5 134.435 2333.73 134.932 2334.72 135.889C2335.72 136.846 2336.21 137.994 2336.21 139.371C2336.21 140.749 2335.72 141.897 2334.72 142.854C2333.73 143.81 2332.5 144.308 2331.09 144.308H2241.69C2240.28 144.308 2238.98 143.772 2237.83 142.662C2236.68 141.552 2236.11 140.328 2236.11 138.989V138.95ZM2046.34 94.177H2125.13L2085.83 12.0161L2046.34 94.177ZM2013.66 139.83C2013.66 138.759 2013.96 137.649 2014.5 136.578L2078.37 5.08961C2080.09 1.72205 2082.58 0 2085.83 0H2086.25C2089.54 0 2092.03 1.68378 2093.71 5.08961L2157.35 136.157C2157.92 137.228 2158.19 138.338 2158.19 139.409C2158.19 140.749 2157.66 141.935 2156.59 142.854C2155.51 143.81 2154.29 144.269 2152.83 144.269C2150.42 144.269 2148.55 142.93 2147.29 140.213L2129.76 103.706H2041.55L2024.03 140.443C2022.88 143.007 2021.12 144.308 2018.67 144.308C2017.25 144.308 2016.03 143.849 2015.03 142.968C2014.04 142.088 2013.54 141.055 2013.54 139.83H2013.66ZM1846.12 134.396H1897.02C1909.03 134.396 1918.6 131.756 1925.68 126.475C1932.76 121.194 1936.28 114 1936.28 104.93V104.509C1936.28 95.5929 1932.6 88.6664 1925.26 83.8064C1917.91 78.9081 1907.35 76.4973 1893.61 76.4973H1846.12V134.396ZM1846.12 66.5859H1892.42C1903.25 66.5859 1911.98 63.9837 1918.56 58.741C1925.18 53.5366 1928.47 46.2275 1928.47 36.8901V36.4692C1928.47 28.3564 1925.41 21.9274 1919.25 17.1057C1913.09 12.284 1904.48 9.91135 1893.38 9.91135H1846.08V66.5859H1846.12ZM1835.71 138.912V5.35749C1835.71 3.97985 1836.25 2.75528 1837.32 1.64551C1838.39 0.535749 1839.58 0 1840.91 0H1893.61C1909.64 0 1921.77 4.24772 1930.08 12.7814C1936.09 18.9425 1939.11 26.5196 1939.11 35.436V35.8569C1939.11 52.0824 1931.15 63.4862 1915.27 70.0683C1936.39 75.6936 1946.92 87.174 1946.92 104.471V104.892C1946.92 116.831 1942.32 126.398 1933.18 133.555C1924.03 140.711 1911.82 144.269 1896.59 144.269H1840.88C1839.54 144.269 1838.35 143.734 1837.28 142.624C1836.21 141.514 1835.67 140.29 1835.67 138.912H1835.71ZM1735.64 131.718C1722.44 146.757 1705.52 154.296 1684.9 154.296C1664.27 154.296 1647.39 146.833 1634.35 131.947C1621.3 117.061 1614.75 99.1901 1614.75 78.4107V77.9897C1614.75 57.172 1621.33 39.2627 1634.54 24.2235C1647.7 9.18426 1664.61 1.64551 1685.28 1.64551C1705.91 1.64551 1722.78 9.10773 1735.83 23.9939C1748.88 38.8801 1755.39 56.7511 1755.39 77.5305V77.9514C1755.39 98.7691 1748.8 116.678 1735.6 131.718H1735.64ZM1457.55 138.912V5.31922C1457.55 3.94158 1458.12 2.71701 1459.27 1.64551C1460.42 0.574017 1461.72 0 1463.14 0C1464.55 0 1465.85 0.535749 1467 1.64551C1468.15 2.75528 1468.72 3.97985 1468.72 5.31922V134.396H1552.53C1553.94 134.396 1555.17 134.894 1556.16 135.851C1557.16 136.807 1557.66 137.955 1557.66 139.333C1557.66 140.711 1557.16 141.859 1556.16 142.815C1555.17 143.772 1553.94 144.269 1552.53 144.269H1463.14C1461.72 144.269 1460.42 143.734 1459.27 142.624C1458.12 141.514 1457.55 140.29 1457.55 138.95V138.912Z" fill="#E6E6E6"/>
</svg>
