<svg width="831" height="699" viewBox="0 0 831 699" fill="none" xmlns="http://www.w3.org/2000/svg">
<path d="M403.927 0.229882C365.127 3.52988 336.027 11.2299 307.727 25.8299C301.227 29.2299 295.427 32.5299 294.827 33.2299C293.027 35.4299 295.327 37.2299 301.227 38.7299C310.827 40.9299 334.827 49.5299 342.927 53.6299C347.327 55.8299 351.427 57.6299 352.227 57.6299C352.927 57.6299 356.627 55.5299 360.427 53.0299C369.127 47.2299 390.827 36.8299 401.427 33.2299C440.727 20.2299 480.127 19.9299 519.927 32.1299C530.427 35.3299 536.527 37.8299 550.827 44.7299C557.627 48.0299 563.327 50.5299 563.627 50.3299C564.127 49.7299 552.427 40.6299 544.627 35.5299C537.727 30.9299 514.027 19.2299 503.827 15.2299C491.427 10.4299 469.927 5.12988 453.127 2.72988C439.827 0.829882 413.027 -0.570118 403.927 0.229882Z" fill="black"/>
<path d="M276.927 44.2298C254.427 59.5298 228.227 86.6298 212.527 110.83C201.927 127.23 190.627 150.43 184.927 167.73C181.527 178.13 182.327 179.33 191.427 176.93C210.127 172.03 240.927 169.63 262.227 171.53C271.027 172.23 275.627 172.33 276.927 171.63C278.027 171.03 279.327 168.73 279.927 166.33C288.727 131.43 306.127 101.13 332.027 75.9298C336.127 72.0298 340.727 67.7298 342.427 66.3298C344.927 64.2298 345.227 63.5298 344.227 61.5298C342.027 56.7298 303.427 42.8298 287.427 41.0298C282.827 40.5298 281.927 40.8298 276.927 44.2298Z" fill="black"/>
<path d="M437.426 59.5295C435.226 60.0295 431.326 60.6295 428.726 60.9295C414.026 62.7295 385.026 73.6296 374.526 81.3296C355.726 95.3296 344.926 105.93 335.326 120.13C323.426 137.73 316.926 151.53 312.426 169.13C305.226 196.93 305.026 226.13 311.926 252.53C314.926 264.03 317.626 270.13 319.426 269.73C320.626 269.53 320.626 267.23 319.026 252.03C315.926 221.03 318.626 200.13 328.726 177.03C344.526 140.83 375.426 117.53 419.126 109.03C430.926 106.63 455.926 106.73 466.426 109.03C499.526 116.33 523.826 134.53 537.626 162.13C545.126 177.03 548.026 189.83 548.126 208.03C548.226 223.83 547.726 228.33 544.726 237.43C541.626 247.03 543.826 249.33 550.426 243.43C554.526 239.83 561.626 230.23 564.926 223.73C575.726 202.23 575.426 170.23 564.126 141.13C556.326 121.13 547.626 107.43 533.526 92.8296C511.426 69.9296 488.526 60.1295 454.926 59.1295C447.526 58.9295 439.626 59.1295 437.426 59.5295Z" fill="black"/>
<path d="M541.927 79.4293C541.927 79.8293 546.027 84.6293 551.027 90.1293C560.627 100.729 570.127 114.229 576.727 126.629C591.327 153.929 595.627 195.629 586.727 223.629C579.127 247.429 556.227 270.929 533.427 278.229C524.227 281.129 505.727 280.929 496.627 277.829C465.527 267.029 452.027 231.229 471.327 210.829C474.127 207.829 478.627 204.329 481.427 202.929C492.127 197.529 491.927 195.329 480.527 191.129C473.427 188.529 472.227 188.429 461.227 188.929C443.027 189.629 429.727 195.029 418.327 206.129C404.627 219.529 398.927 233.029 398.127 253.929C397.427 273.429 400.227 283.829 410.227 298.929C419.827 313.429 426.127 319.329 441.427 328.429C459.227 338.929 474.527 342.929 496.927 343.029C513.027 343.129 517.527 342.529 532.927 337.929C550.027 332.829 571.027 319.429 583.027 305.929C598.527 288.629 607.727 271.929 612.827 251.929C626.827 197.229 610.727 139.029 570.827 99.9293C561.127 90.5293 558.627 88.4293 550.327 82.8293C544.427 78.7293 541.927 77.7293 541.927 79.4293Z" fill="black"/>
<path d="M428.925 129.23C404.525 133.33 385.225 143.23 369.725 159.53C356.825 173.03 349.525 185.83 343.825 204.93C341.125 214.13 340.725 216.93 340.225 233.03C339.525 253.53 340.525 262.83 345.125 278.63C358.925 326.33 392.425 356.63 441.425 365.83C450.725 367.53 475.825 367.23 488.325 365.23C498.825 363.63 507.125 360.83 506.625 359.13C506.425 358.53 500.225 357.73 492.825 357.33C446.725 354.63 409.325 337.03 391.525 309.63C381.625 294.43 376.025 277.73 375.225 260.73C374.525 248.63 375.925 239.63 380.025 228.33C393.125 192.23 420.625 171.73 459.525 169.03C469.825 168.23 478.225 169.43 490.225 173.33C503.225 177.53 516.225 185.93 527.525 197.53C536.925 207.13 539.525 205.53 536.025 192.43C531.825 176.73 524.525 164.33 512.225 152.43C498.525 139.13 482.825 131.93 461.525 129.13C448.325 127.33 440.225 127.33 428.925 129.23Z" fill="black"/>
<path d="M641.425 152.43C641.725 153.53 642.625 157.83 643.425 162.03C644.225 166.33 645.125 170.13 645.325 170.43C646.625 172.63 649.125 199.33 649.025 211.63C648.925 233.83 646.125 251.33 639.425 272.13C632.425 293.53 615.625 321.73 600.425 337.63C593.625 344.73 592.625 346.73 594.025 350.23C596.325 356.43 601.225 380.43 603.525 397.33C603.825 399.23 604.625 400.63 605.425 400.63C608.825 400.63 628.325 371.83 637.025 353.83C647.625 331.83 655.325 307.73 659.625 283.63C662.025 270.13 662.525 229.13 660.525 213.73C657.925 194.53 649.125 161.93 644.625 155.63C643.725 154.33 642.925 152.63 642.925 151.93C642.925 151.23 642.425 150.63 641.825 150.63C641.225 150.63 641.025 151.43 641.425 152.43Z" fill="black"/>
<path d="M233.926 176.23C232.026 176.43 225.526 177.13 219.426 177.63C207.926 178.73 193.826 181.53 185.626 184.23C179.526 186.23 178.726 187.83 175.826 204.13C173.726 215.73 173.426 220.13 173.426 244.63C173.426 266.83 173.826 274.13 175.226 282.63C180.326 311.63 187.026 332.13 199.526 356.73C207.826 373.03 213.426 381.63 215.726 381.63C216.626 381.63 220.626 378.43 224.426 374.53C233.626 365.13 249.226 352.33 260.426 344.93C270.326 338.33 291.226 327.23 300.126 323.73C309.026 320.13 309.026 320.13 301.926 308.53C290.326 289.73 283.226 271.53 278.226 247.63C275.726 236.13 275.526 233.13 275.426 211.63C275.426 198.73 275.726 186.73 276.126 185.03C277.626 178.43 274.026 177.13 250.826 176.33C243.426 176.03 235.826 176.03 233.926 176.23Z" fill="black"/>
<path d="M304.926 327.83C296.326 331.13 273.926 342.83 264.826 348.83C246.926 360.53 220.926 384.63 220.926 389.53C220.926 392.43 234.926 409.43 246.526 420.63C288.526 461.13 338.526 484.13 395.326 489.13C404.626 490.03 413.026 490.43 414.026 490.13C416.926 489.13 419.326 485.03 424.426 472.23C432.126 452.63 438.626 423.63 439.126 406.73C439.426 398.73 438.126 396.63 433.226 396.63C426.526 396.63 399.226 388.73 388.126 383.53C384.626 381.93 381.426 380.63 381.026 380.63C379.826 380.63 357.026 366.83 349.926 361.83C346.326 359.33 336.326 350.13 327.626 341.43C318.926 332.73 311.526 325.63 311.126 325.73C310.726 325.73 307.926 326.63 304.926 327.83Z" fill="black"/>
<path d="M580.326 356.73C573.126 363.03 555.826 374.03 544.426 379.63C517.926 392.63 491.526 398.63 461.126 398.63C450.526 398.63 447.926 398.93 446.826 400.23C446.126 401.13 444.926 407.53 444.226 414.93C441.826 438.23 435.126 464.43 427.126 481.33C425.826 484.23 424.926 487.33 425.326 488.13C426.726 491.93 460.226 488.03 484.526 481.13C508.926 474.23 536.326 461.23 556.926 446.83C573.526 435.23 594.826 415.83 596.826 410.43C598.226 406.63 596.426 385.93 593.426 371.83C591.026 360.43 588.426 353.53 586.326 352.93C585.626 352.73 582.926 354.43 580.326 356.73Z" fill="black"/>
<path d="M102.126 588.33C101.026 589.83 95.6262 600.13 90.0262 611.13C68.5262 653.43 67.5262 655.13 64.9262 655.13C62.8262 655.13 60.7262 651.53 45.5262 621.13C31.6262 593.53 28.0262 587.13 26.4262 587.13C24.2262 587.13 23.3262 590.63 12.5262 637.13C10.0262 648.13 6.42622 663.23 4.42622 670.63C2.52622 678.03 0.62622 686.43 0.32622 689.33C-0.27378 694.33 -0.27378 694.53 2.32622 695.23C6.22622 696.13 16.9262 695.23 17.8262 693.73C18.2262 693.13 20.5262 684.53 22.9262 674.83C30.5262 643.73 31.8262 640.73 35.7262 646.43C36.7262 647.93 42.9262 659.53 49.4262 672.33C61.6262 696.33 63.8262 699.73 66.2262 697.73C67.0262 697.13 71.1262 689.73 75.4262 681.43C79.7262 673.03 84.8262 663.23 86.8262 659.63C88.9262 656.03 91.4262 651.43 92.5262 649.23C93.5262 647.13 95.0262 645.13 95.7262 644.93C99.1262 643.53 100.726 648.23 106.926 677.23C108.726 685.63 110.526 693.03 111.026 693.73C112.026 695.43 125.726 696.23 127.926 694.73C129.126 693.93 129.126 692.63 128.126 686.43C127.526 682.43 126.326 676.43 125.526 673.13C121.726 657.53 119.526 647.13 114.426 623.13C107.626 590.33 107.126 588.43 105.526 586.83C104.426 585.73 103.826 585.93 102.126 588.33Z" fill="black"/>
<path d="M189.527 592.229C173.527 596.129 158.827 608.829 152.727 623.929C149.927 631.029 149.427 633.629 149.127 642.629C148.827 651.829 149.127 654.029 151.327 660.529C154.627 670.129 158.627 676.229 166.227 683.229C177.027 693.229 189.627 697.329 206.327 696.329C220.827 695.529 229.127 691.729 239.627 681.129C249.627 671.129 253.127 664.429 255.027 652.029C256.727 640.629 255.227 630.829 250.427 620.929C245.927 611.829 235.827 601.329 227.227 596.829C216.127 591.029 201.827 589.229 189.527 592.229ZM216.427 611.529C223.727 614.929 229.927 621.029 233.627 628.529C236.027 633.429 236.427 635.329 236.427 643.629C236.427 652.429 236.127 653.729 233.127 659.829C229.327 667.529 223.927 672.829 216.027 676.429C211.327 678.629 209.027 679.129 201.927 679.029C191.627 679.029 186.327 677.029 179.027 670.129C172.427 664.029 169.327 658.529 167.927 650.729C165.727 638.429 169.227 627.129 177.827 618.729C189.127 607.729 202.727 605.229 216.427 611.529Z" fill="black"/>
<path d="M318.226 592.13C308.726 594.23 300.426 599.13 291.826 607.63C285.226 614.13 283.826 616.23 280.826 623.63C277.626 631.73 277.426 632.73 277.526 644.13C277.626 662.13 281.626 671.63 293.626 682.53C305.526 693.33 316.826 697.23 333.426 696.33C347.526 695.63 356.726 691.83 366.326 682.73C375.126 674.23 378.226 669.73 380.926 661.13C383.926 651.43 383.926 636.83 380.926 627.13C372.826 601.43 345.526 586.23 318.226 592.13ZM342.326 610.23C360.426 616.63 370.126 640.13 362.026 658.03C358.326 666.23 353.426 671.53 345.726 675.73C339.926 678.73 338.726 679.03 330.426 679.03C322.326 679.03 320.826 678.73 315.426 675.93C308.826 672.53 302.226 666.03 299.126 659.93C293.626 649.23 294.326 634.63 300.826 625.13C310.926 610.23 326.526 604.73 342.326 610.23Z" fill="black"/>
<path d="M653.227 592.129C634.127 596.329 616.327 614.429 612.827 633.329C611.327 641.029 612.327 654.729 614.927 662.129C625.027 691.429 660.327 705.129 689.627 691.229C702.727 684.929 714.527 670.129 717.827 655.629C719.127 649.929 719.127 638.429 717.827 632.729C716.027 624.529 710.527 614.329 704.527 607.829C691.427 593.829 672.427 587.929 653.227 592.129ZM677.327 610.229C685.927 613.329 695.327 622.829 698.427 631.729C700.727 638.029 700.327 650.429 697.727 657.329C695.127 664.329 686.827 673.029 679.427 676.629C675.227 678.629 672.927 679.029 665.427 679.029C657.627 679.029 655.727 678.629 651.127 676.229C638.327 669.629 631.827 659.929 631.127 646.129C630.327 630.129 636.627 618.929 650.627 611.629C658.427 607.629 668.227 607.029 677.327 610.229Z" fill="black"/>
<path d="M481.126 593.829C480.226 594.729 479.926 602.629 479.926 623.329V651.629H477.526C475.826 651.629 468.126 644.529 447.326 623.629C432.026 608.229 418.926 595.629 418.126 595.629C417.326 595.629 414.726 597.629 412.326 600.029L407.926 604.329V648.829C407.926 682.029 408.226 693.529 409.126 694.429C410.626 695.929 421.326 696.029 424.026 694.629C425.826 693.629 425.926 692.229 425.926 665.129C425.926 649.529 426.226 636.129 426.526 635.229C428.126 630.929 431.626 633.929 462.826 665.629C481.726 684.929 494.926 697.629 496.026 697.629C497.826 697.629 497.926 695.629 498.126 647.029C498.326 619.229 498.126 595.629 497.726 594.529C497.126 592.929 496.026 592.629 489.626 592.629C485.326 592.629 481.826 593.129 481.126 593.829Z" fill="black"/>
<path d="M518.126 593.83C516.826 595.13 516.526 606.43 517.726 608.43C518.326 609.33 522.426 609.73 532.126 609.93C541.826 610.03 546.126 610.53 547.226 611.53C548.726 612.73 548.926 616.93 548.926 652.73C548.926 687.53 549.126 692.73 550.526 694.03C552.726 696.23 564.126 696.23 566.326 694.03C567.726 692.73 567.926 687.53 567.926 652.73C567.926 616.93 568.126 612.73 569.626 611.53C570.726 610.53 574.926 610.03 583.826 609.93C590.726 609.83 596.826 609.53 597.526 609.23C599.126 608.63 604.326 596.03 603.626 594.23C603.026 592.83 598.026 592.63 561.126 592.63C529.926 592.63 519.026 592.93 518.126 593.83Z" fill="black"/>
<path d="M815.226 593.23C814.226 593.63 813.926 600.23 813.926 621.23C813.926 647.93 813.426 652.63 810.726 652.63C810.126 652.63 796.926 639.73 781.426 624.03C758.526 600.73 752.926 595.53 751.326 596.03C750.226 596.33 747.526 598.43 745.326 600.73L741.426 604.73V649.13C741.426 673.53 741.826 693.83 742.226 694.23C743.526 695.53 755.526 695.93 757.726 694.73C759.826 693.63 759.926 693.03 760.126 663.83L760.426 634.13L762.726 633.83C764.326 633.53 766.126 634.63 768.726 637.33C791.726 661.33 829.426 698.53 830.126 697.83C830.526 697.43 830.826 673.63 830.726 645.03L830.426 593.13L823.426 592.93C819.626 592.83 815.826 593.03 815.226 593.23Z" fill="black"/>
</svg>
