<svg width="1000" height="289" viewBox="0 0 1000 289" fill="none" xmlns="http://www.w3.org/2000/svg">
<g clip-path="url(#clip0)">
<path d="M130.62 0L0 64.184V179.08L130.62 179.077V0Z" fill="#0B2A4A"/>
<path d="M167.779 288.488L302.904 217.548L130.614 179.078L0.401316 178.998L0 248.975L167.779 288.488Z" fill="#C3D600"/>
<path d="M0 151V248.965L130.617 179.077L0 151Z" fill="#00A1E1"/>
<path d="M488.777 57.0087V31.1099H366.039V152.722H488.777V124.571H398.694V103.176H488.777V78.4034H398.694V57.0087H488.777Z" fill="#E6E6E6"/>
<path d="M831.093 152.722V31.1099H695.969V152.722H831.093ZM798.438 60.3868V124.571H727.498V60.3868H798.438Z" fill="#E6E6E6"/>
<path d="M614.893 91.9158L670.069 31.1099H628.405L592.372 72.7732L556.339 31.1099H514.676L570.978 91.9158L514.676 152.722H556.339L592.372 111.058L628.405 152.722H670.069L614.893 91.9158Z" fill="#E6E6E6"/>
<path d="M330.007 31.1096H297.352V97.5457L197.135 27.7314V152.721H228.664V86.2853L330.007 156.099V31.1096Z" fill="#E6E6E6"/>
<path d="M867.125 152.721H898.654V85.1593L999.997 156.099V31.1096H968.468V97.5457L867.125 27.7314V152.721Z" fill="#E6E6E6"/>
</g>
<defs>
<clipPath id="clip0">
<rect width="1000" height="288.489" fill="white"/>
</clipPath>
</defs>
</svg>
