<?xml version="1.0" encoding="UTF-8" standalone="no"?>
<svg
   xmlns:dc="http://purl.org/dc/elements/1.1/"
   xmlns:cc="http://creativecommons.org/ns#"
   xmlns:rdf="http://www.w3.org/1999/02/22-rdf-syntax-ns#"
   xmlns:svg="http://www.w3.org/2000/svg"
   xmlns="http://www.w3.org/2000/svg"
   viewBox="0 0 236.444 85.333336"
   height="85.333336"
   width="236.444"
   xml:space="preserve"
   id="svg2"
   version="1.1"><metadata
     id="metadata8"><rdf:RDF><cc:Work
         rdf:about=""><dc:format>image/svg+xml</dc:format><dc:type
           rdf:resource="http://purl.org/dc/dcmitype/StillImage" /></cc:Work></rdf:RDF></metadata><defs
     id="defs6"><clipPath
       id="clipPath18"
       clipPathUnits="userSpaceOnUse"><path
         id="path16"
         d="M 0,64 H 177.333 V 0 H 0 Z" /></clipPath></defs><g
     transform="matrix(1.3333333,0,0,-1.3333333,0,85.333333)"
     id="g10"><g
       id="g12"><g
         clip-path="url(#clipPath18)"
         id="g14"><g
           transform="translate(14.6896,31.7321)"
           id="g20"><path
             id="path22"
             style="fill:#28d223;fill-opacity:1;fill-rule:nonzero;stroke:none"
             d="M 0,0 C 0,-2.023 0.602,-3.719 1.75,-5.032 2.953,-6.344 4.43,-7 6.234,-7 c 1.805,0 3.282,0.656 4.431,1.968 1.202,1.313 1.804,3.009 1.804,5.032 0,2.023 -0.602,3.719 -1.804,5.031 C 9.516,6.344 8.039,7 6.234,7 4.43,7 2.953,6.344 1.75,5.031 0.602,3.719 0,2.023 0,0 M 16.516,-10.117 C 13.945,-12.688 10.773,-14 7,-14 c -2.844,0 -5.141,0.765 -6.891,2.296 V -24.008 H -7.656 V 13.398 H 0 c 0,0 4.102,0.657 7,0.657 3.773,0 6.945,-1.313 9.516,-3.883 2.57,-2.57 3.883,-5.961 3.883,-10.172 0,-4.156 -1.313,-7.547 -3.883,-10.117" /></g><g
           transform="translate(70.3605,27.0285)"
           id="g24"><path
             id="path26"
             style="fill:#28d223;fill-opacity:1;fill-rule:nonzero;stroke:none"
             d="m 0,0 c 1.258,1.367 1.914,3.008 1.914,4.867 0,3.719 -2.68,6.673 -6.836,6.673 -1.914,0 -3.5,-0.657 -4.758,-1.969 -1.258,-1.313 -1.859,-2.899 -1.859,-4.704 0,-1.804 0.656,-3.445 1.914,-4.812 1.258,-1.367 2.844,-2.078 4.703,-2.078 2.024,0 3.664,0.656 4.922,2.023 m 1.914,18.102 h 7.82 V -8.695 h -7.82 v 1.968 c -2.078,-1.695 -4.539,-2.57 -7.437,-2.57 -3.883,0 -7.219,1.313 -9.954,3.992 -2.734,2.68 -4.101,6.016 -4.101,10.009 0,3.992 1.367,7.328 4.101,10.007 2.735,2.68 6.071,4.047 9.954,4.047 3.226,0 7.437,-0.656 7.437,-0.656" /></g><g
           transform="translate(121.6725,37.9665)"
           id="g28"><path
             id="path30"
             style="fill:#28d223;fill-opacity:1;fill-rule:nonzero;stroke:none"
             d="M 0,0 V -19.633 H -7.766 V 7.164 H 8.667 V 0 Z" /></g><g
           transform="translate(31.5309,56.6149)"
           id="g32"><path
             id="path34"
             style="fill:#28d223;fill-opacity:1;fill-rule:nonzero;stroke:none"
             d="M 0,0 V -7.164 H 7.494 V -38.282 H 15.26 V 0 Z" /></g><g
           transform="translate(138.2775,58.3805)"
           id="g36"><path
             id="path38"
             style="fill:#28d223;fill-opacity:1;fill-rule:nonzero;stroke:none"
             d="m 0,0 c 2.896,0 5.115,-2.219 5.115,-5.115 0,-2.773 -2.342,-5.053 -5.115,-5.053 -2.773,0 -5.053,2.28 -5.053,5.053 C -5.053,-2.219 -2.773,0 0,0" /></g><path
           id="path40"
           style="fill:#28d223;fill-opacity:1;fill-rule:nonzero;stroke:none"
           d="m 134.398,45.131 h 7.82 V 18.334 h -7.82 z" /><g
           transform="translate(154.3459,45.1305)"
           id="g42"><path
             id="path44"
             style="fill:#28d223;fill-opacity:1;fill-rule:nonzero;stroke:none"
             d="M 0,0 4.047,-6.836 8.094,0 h 8.75 L 8.422,-13.016 17.445,-26.797 H 8.75 l -4.703,7.601 -4.649,-7.601 h -8.75 L -0.328,-13.016 -8.75,0 Z" /></g><g
           transform="translate(96.925,7.7238)"
           id="g46"><path
             id="path48"
             style="fill:#28d223;fill-opacity:1;fill-rule:nonzero;stroke:none"
             d="m 0,0 h -8.203 l 4.375,10.609 -10.445,26.798 h 8.64 L 0.383,20.836 6.617,37.407 h 8.313 z" /></g></g></g></g></svg>