<svg width="1024" height="84" viewBox="0 0 1024 84" fill="none" xmlns="http://www.w3.org/2000/svg">
<path d="M31.4151 80.7202L21.4504 49.9718H15.1868V80.7202H2.375V3.27991H22.3045C33.9774 3.27991 41.6645 7.83522 41.6645 19.5082V33.4589C41.6645 40.8612 38.5327 45.4165 33.1233 47.6942L44.2269 80.4355L31.4151 80.7202ZM15.1868 38.8683H22.0198C26.2904 38.8683 29.1374 37.4447 29.1374 31.7506V21.7858C29.1374 16.3764 26.2904 14.6681 22.0198 14.6681H15.1868V38.8683ZM96.8977 2.42578H97.7518C109.425 2.42578 117.112 6.98109 117.112 18.6541V65.0613C117.112 76.7343 109.425 81.2896 97.7518 81.2896H96.8977C85.2247 81.2896 77.5376 76.7343 77.5376 65.0613V18.6541C77.8223 6.98109 85.5094 2.42578 96.8977 2.42578ZM97.7518 70.186C102.022 70.186 104.869 68.7625 104.869 63.0684V20.647C104.869 15.2376 102.022 13.5294 97.7518 13.5294C93.4812 13.5294 90.6341 14.9529 90.6341 20.647V63.0684C90.6341 68.7625 93.4812 70.186 97.7518 70.186ZM193.413 65.346C193.413 77.3037 185.726 81.5743 174.053 81.5743H173.769C162.096 81.5743 154.409 77.3037 154.409 65.346V18.6541C154.409 7.2658 162.096 2.42578 173.769 2.42578H174.053C185.726 2.42578 193.413 7.2658 193.413 18.6541V32.8894H180.602V20.647C180.602 15.2376 178.039 13.5294 173.769 13.5294C169.783 13.5294 166.936 15.2376 166.936 20.647V63.0684C166.936 68.4778 169.498 70.186 173.769 70.186C177.754 70.186 180.602 68.4778 180.602 63.0684V49.1177H193.413V65.346ZM259.181 80.7202L248.647 47.1248L242.952 58.5131V80.7202H230.141V3.27991H242.952V38.0142L257.472 3.27991H270.854L256.049 32.32L272.277 80.7202H259.181ZM304.164 80.7202V3.27991H338.045V14.6681H316.976V36.0212H334.628V47.4095H316.976V69.6167H338.329V81.0049H304.164V80.7202ZM408.367 14.6681H395.555V80.7202H382.459V14.6681H369.647V3.27991H408.367V14.6681ZM496.342 80.7202V3.27991H509.153V80.7202H496.342ZM547.304 80.7202V3.27991H560.116L576.344 51.1106V3.27991H588.017V80.7202H575.775L558.977 30.327V80.7202H547.304ZM659.763 14.6681H646.952V80.7202H634.14V14.6681H621.328V3.27991H660.048V14.6681H659.763ZM693.074 80.7202V3.27991H726.954V14.6681H705.886V36.0212H723.538V47.4095H705.886V69.6167H727.239V81.0049H693.074V80.7202ZM791.583 80.7202L781.618 49.9718H775.07V80.7202H762.543V3.27991H782.472C794.145 3.27991 801.832 7.83522 801.832 19.5082V33.4589C801.832 40.8612 798.7 45.4165 793.291 47.6942L804.395 80.4355L791.583 80.7202ZM775.639 38.8683H782.472C786.743 38.8683 789.59 37.4447 789.59 31.7506V21.7858C789.59 16.3764 786.743 14.6681 782.472 14.6681H775.639V38.8683ZM839.414 80.7202V3.27991H852.225L868.454 51.1106V3.27991H880.127V80.7202H867.884L851.087 30.327V80.7202H839.414ZM917.708 80.7202V3.27991H951.588V14.6681H930.52V36.0212H948.172V47.4095H930.52V69.6166H951.873V81.0049H917.708V80.7202ZM1021.63 14.6681H1008.53V80.7202H996.003V14.6681H983.191V3.27991H1021.63" fill="#E6E6E6"/>
</svg>
