<svg width="539" height="168" viewBox="0 0 539 168" fill="none" xmlns="http://www.w3.org/2000/svg">
<path d="M83.9969 0.276855C37.7479 0.276855 0.253906 37.7699 0.253906 84.0189C0.253906 130.27 37.7479 167.76 83.9969 167.76C130.251 167.76 167.741 130.27 167.741 84.0189C167.741 37.7729 130.251 0.280855 83.9959 0.280855L83.9969 0.276855V0.276855ZM122.401 121.057C120.901 123.517 117.681 124.297 115.221 122.787C95.5589 110.777 70.8069 108.057 41.6569 114.717C38.8479 115.357 36.0479 113.597 35.4079 110.787C34.7649 107.977 36.5179 105.177 39.3339 104.537C71.2339 97.2489 98.5969 100.387 120.671 113.877C123.131 115.387 123.911 118.597 122.401 121.057V121.057ZM132.651 98.2549C130.761 101.327 126.741 102.297 123.671 100.407C101.161 86.5709 66.8479 82.5639 40.2229 90.6459C36.7699 91.6889 33.1229 89.7429 32.0749 86.2959C31.0349 82.8429 32.9819 79.2029 36.4289 78.1529C66.8419 68.9249 104.651 73.3949 130.501 89.2799C133.571 91.1699 134.541 95.1899 132.651 98.2559V98.2549ZM133.531 74.5109C106.541 58.4799 62.0109 57.0059 36.2419 64.8269C32.1039 66.0819 27.7279 63.7459 26.4739 59.6079C25.2199 55.4679 27.5539 51.0949 31.6949 49.8369C61.2759 40.8569 110.451 42.5919 141.525 61.0389C145.255 63.2479 146.475 68.0549 144.265 71.7719C142.065 75.4939 137.245 76.7209 133.535 74.5109H133.531ZM228.091 77.5829C213.631 74.1349 211.061 71.7149 211.061 66.6299C211.061 61.8259 215.581 58.5929 222.311 58.5929C228.831 58.5929 235.291 61.0479 242.071 66.1019C242.271 66.2549 242.531 66.3159 242.781 66.2759C243.041 66.2379 243.261 66.0989 243.411 65.8899L250.471 55.9379C250.761 55.5279 250.681 54.9629 250.291 54.6499C242.221 48.1769 233.141 45.0299 222.521 45.0299C206.911 45.0299 196.001 54.3989 196.001 67.8039C196.001 82.1789 205.411 87.2689 221.671 91.1979C235.501 94.3849 237.841 97.0549 237.841 101.827C237.841 107.117 233.121 110.407 225.521 110.407C217.081 110.407 210.191 107.557 202.491 100.897C202.301 100.727 202.041 100.657 201.801 100.667C201.541 100.687 201.311 100.807 201.151 100.997L193.231 110.417C192.901 110.817 192.941 111.397 193.321 111.737C202.281 119.737 213.301 123.957 225.201 123.957C242.021 123.957 252.891 114.767 252.891 100.537C252.921 88.5299 245.731 81.8799 228.121 77.5959L228.091 77.5829V77.5829ZM290.951 63.3229C283.661 63.3229 277.681 66.1949 272.741 72.0799V65.4559C272.741 64.9329 272.321 64.5069 271.801 64.5069H258.851C258.331 64.5069 257.911 64.9329 257.911 65.4559V139.057C257.911 139.577 258.331 140.007 258.851 140.007H271.801C272.321 140.007 272.741 139.577 272.741 139.057V115.827C277.681 121.357 283.661 124.067 290.951 124.067C304.501 124.067 318.221 113.637 318.221 93.6979C318.241 73.7549 304.521 63.3219 290.961 63.3219L290.951 63.3229ZM303.161 93.6979C303.161 103.847 296.911 110.937 287.951 110.937C279.101 110.937 272.421 103.527 272.421 93.6979C272.421 83.8679 279.101 76.4599 287.951 76.4599C296.761 76.4589 303.161 83.7069 303.161 93.6969V93.6979ZM353.371 63.3229C335.921 63.3229 322.251 76.7589 322.251 93.9149C322.251 110.887 335.831 124.177 353.161 124.177C370.671 124.177 384.381 110.787 384.381 93.6979C384.381 76.6669 370.761 63.3249 353.371 63.3249V63.3229V63.3229ZM353.371 111.037C344.091 111.037 337.091 103.577 337.091 93.6929C337.091 83.7639 343.851 76.5589 353.161 76.5589C362.501 76.5589 369.541 84.0159 369.541 93.9099C369.541 103.837 362.741 111.037 353.371 111.037V111.037ZM421.641 64.5069H407.391V49.9409C407.391 49.4189 406.971 48.9929 406.451 48.9929H393.501C392.981 48.9929 392.551 49.4189 392.551 49.9409V64.5069H386.331C385.811 64.5069 385.391 64.9329 385.391 65.4559V76.5829C385.391 77.1049 385.811 77.5319 386.331 77.5319H392.551V106.327C392.551 117.957 398.341 123.857 409.771 123.857C414.411 123.857 418.261 122.897 421.891 120.837C422.191 120.677 422.371 120.357 422.371 120.017V109.417C422.371 109.097 422.201 108.787 421.921 108.617C421.641 108.437 421.291 108.427 421.001 108.577C418.511 109.827 416.101 110.407 413.401 110.407C409.251 110.407 407.391 108.517 407.391 104.297V77.5369H421.641C422.161 77.5369 422.581 77.1109 422.581 76.5879V65.4619C422.601 64.9389 422.181 64.5129 421.651 64.5129L421.641 64.5069V64.5069ZM471.281 64.5639V62.7749C471.281 57.5119 473.301 55.1649 477.821 55.1649C480.521 55.1649 482.691 55.7009 485.121 56.5109C485.421 56.6049 485.731 56.5579 485.971 56.3789C486.221 56.1999 486.361 55.9129 486.361 55.6089V44.6989C486.361 44.2819 486.101 43.9129 485.691 43.7899C483.131 43.0269 479.851 42.2439 474.931 42.2439C462.981 42.2439 456.651 48.9779 456.651 61.7109V64.4509H450.431C449.911 64.4509 449.481 64.8769 449.481 65.3989V76.5829C449.481 77.1049 449.911 77.5319 450.431 77.5319H456.651V121.937C456.651 122.467 457.081 122.887 457.601 122.887H470.541C471.071 122.887 471.491 122.467 471.491 121.937V77.5349H483.581L502.101 121.937C500.001 126.597 497.931 127.527 495.111 127.527C492.831 127.527 490.421 126.847 487.971 125.497C487.741 125.377 487.461 125.357 487.221 125.427C486.971 125.517 486.761 125.697 486.661 125.937L482.271 135.567C482.061 136.027 482.241 136.557 482.681 136.797C487.261 139.277 491.391 140.337 496.501 140.337C506.061 140.337 511.351 135.877 516.001 123.897L538.461 65.8599C538.581 65.5679 538.541 65.2379 538.361 64.9789C538.191 64.7219 537.901 64.5669 537.591 64.5669H524.111C523.701 64.5669 523.341 64.8239 523.211 65.2029L509.401 104.637L494.281 65.1769C494.141 64.8099 493.791 64.5669 493.401 64.5669H471.281V64.5639V64.5639ZM442.501 64.5069H429.551C429.031 64.5069 428.601 64.9329 428.601 65.4559V121.937C428.601 122.467 429.031 122.887 429.551 122.887H442.501C443.021 122.887 443.451 122.467 443.451 121.937V65.4599C443.451 64.9369 443.031 64.5109 442.501 64.5109V64.5069ZM436.101 38.7879C430.971 38.7879 426.811 42.9399 426.811 48.0689C426.811 53.2009 430.971 57.3579 436.101 57.3579C441.231 57.3579 445.381 53.2009 445.381 48.0689C445.381 42.9409 441.221 38.7879 436.101 38.7879ZM549.521 82.6679C544.401 82.6679 540.411 78.5529 540.411 73.5559C540.411 68.5589 544.451 64.3969 549.571 64.3969C554.691 64.3969 558.681 68.5109 558.681 73.5039C558.681 78.5009 554.641 82.6679 549.521 82.6679ZM549.571 65.3029C544.901 65.3029 541.371 69.0129 541.371 73.5559C541.371 78.0969 544.881 81.7569 549.521 81.7569C554.191 81.7569 557.721 78.0499 557.721 73.5039C557.721 68.9629 554.211 65.3029 549.571 65.3029V65.3029ZM551.591 74.4409L554.171 78.0489H551.991L549.671 74.7389H547.681V78.0489H545.861V68.4849H550.121C552.351 68.4849 553.811 69.6219 553.811 71.5359C553.821 73.1039 552.911 74.0619 551.601 74.4409H551.591ZM550.051 70.1259H547.681V73.1509H550.051C551.231 73.1509 551.941 72.5719 551.941 71.6369C551.941 70.6529 551.231 70.1259 550.051 70.1259V70.1259Z" fill="#1ED760"/>
</svg>
