<?xml version="1.0" standalone="no"?>
<!DOCTYPE svg PUBLIC "-//W3C//DTD SVG 20010904//EN"
 "http://www.w3.org/TR/2001/REC-SVG-20010904/DTD/svg10.dtd">
<svg version="1.0" xmlns="http://www.w3.org/2000/svg"
 width="797.000000pt" height="797.000000pt" viewBox="0 0 797.000000 797.000000"
 preserveAspectRatio="xMidYMid meet">
<metadata>
Created by potrace 1.14, written by Peter Selinger 2001-2017
</metadata>
<g transform="translate(0.000000,797.000000) scale(0.100000,-0.100000)"
fill="#000000" stroke="none">
<path d="M3660 7963 c-95 -10 -348 -56 -455 -83 -949 -239 -1757 -864 -2229
-1725 -178 -324 -314 -714 -375 -1075 -32 -185 -42 -292 -48 -510 -19 -677
150 -1325 496 -1899 45 -74 81 -139 81 -145 0 -5 -162 -562 -360 -1237 -198
-675 -360 -1241 -360 -1258 0 -29 2 -31 37 -31 20 0 1011 236 2202 525 1191
289 2213 537 2271 551 695 168 1380 602 1842 1165 339 413 581 896 704 1404
75 314 79 353 79 825 0 480 -6 543 -87 864 -325 1297 -1374 2305 -2681 2575
-258 53 -355 61 -735 59 -191 0 -363 -3 -382 -5z m662 -1088 c491 -57 932
-249 1304 -568 444 -380 727 -891 821 -1480 25 -160 25 -548 0 -702 -88 -534
-317 -986 -686 -1356 -341 -340 -713 -541 -1217 -658 -93 -22 -708 -170 -1368
-331 -659 -160 -1200 -289 -1202 -288 -1 2 78 278 176 613 l179 610 -184 278
c-124 187 -208 326 -255 420 -110 226 -187 473 -227 737 -24 159 -24 491 0
650 124 818 613 1489 1342 1846 271 132 507 197 860 238 83 9 345 4 457 -9z"/>
</g>
</svg>
