<svg width="350" height="126" viewBox="0 0 350 126" fill="none" xmlns="http://www.w3.org/2000/svg">
<path d="M183.701 37.1C183.701 40.7 180.801 43.6 177.201 43.6C173.601 43.6 170.701 40.7 170.701 37.1C170.701 33.5 173.501 30.6 177.201 30.6C180.901 30.7 183.701 33.6 183.701 37.1ZM156.901 50.2C156.901 50.8 156.901 51.8 156.901 51.8C156.901 51.8 153.801 47.8 147.201 47.8C136.301 47.8 127.801 56.1 127.801 67.6C127.801 79 136.201 87.4 147.201 87.4C153.901 87.4 156.901 83.3 156.901 83.3V85C156.901 85.8 157.501 86.4 158.301 86.4H166.401V48.8C166.401 48.8 159.001 48.8 158.301 48.8C157.501 48.8 156.901 49.5 156.901 50.2ZM156.901 74.3C155.401 76.5 152.401 78.4 148.801 78.4C142.401 78.4 137.501 74.4 137.501 67.6C137.501 60.8 142.401 56.8 148.801 56.8C152.301 56.8 155.501 58.8 156.901 60.9V74.3ZM172.401 48.8H182.001V86.4H172.401V48.8ZM315.801 47.8C309.201 47.8 306.101 51.8 306.101 51.8V30.7H296.501V86.4C296.501 86.4 303.901 86.4 304.601 86.4C305.401 86.4 306.001 85.7 306.001 85V83.3C306.001 83.3 309.101 87.4 315.701 87.4C326.601 87.4 335.101 79 335.101 67.6C335.101 56.2 326.601 47.8 315.801 47.8ZM314.201 78.3C310.501 78.3 307.601 76.4 306.101 74.2V60.8C307.601 58.8 310.801 56.7 314.201 56.7C320.601 56.7 325.501 60.7 325.501 67.5C325.501 74.3 320.601 78.3 314.201 78.3ZM291.501 64.1V86.5H281.901V65.2C281.901 59 279.901 56.5 274.501 56.5C271.601 56.5 268.601 58 266.701 60.2V86.4H257.101V48.8H264.701C265.501 48.8 266.101 49.5 266.101 50.2V51.8C268.901 48.9 272.601 47.8 276.301 47.8C280.501 47.8 284.001 49 286.801 51.4C290.201 54.2 291.501 57.8 291.501 64.1ZM233.801 47.8C227.201 47.8 224.101 51.8 224.101 51.8V30.7H214.501V86.4C214.501 86.4 221.901 86.4 222.601 86.4C223.401 86.4 224.001 85.7 224.001 85V83.3C224.001 83.3 227.101 87.4 233.701 87.4C244.601 87.4 253.101 79 253.101 67.6C253.201 56.2 244.701 47.8 233.801 47.8ZM232.201 78.3C228.501 78.3 225.601 76.4 224.101 74.2V60.8C225.601 58.8 228.801 56.7 232.201 56.7C238.601 56.7 243.501 60.7 243.501 67.5C243.501 74.3 238.601 78.3 232.201 78.3ZM206.201 47.8C209.101 47.8 210.601 48.3 210.601 48.3V57.2C210.601 57.2 202.601 54.5 197.601 60.2V86.5H188.001V48.8C188.001 48.8 195.401 48.8 196.101 48.8C196.901 48.8 197.501 49.5 197.501 50.2V51.8C199.301 49.7 203.201 47.8 206.201 47.8ZM106.501 83C106.001 81.8 105.501 80.5 105.001 79.4C104.201 77.6 103.401 75.9 102.701 74.3L102.601 74.2C95.7005 59.2 88.3005 44 80.5005 29L80.2005 28.4C79.4005 26.9 78.6005 25.3 77.8005 23.7C76.8005 21.9 75.8005 20 74.2005 18.2C71.0005 14.2 66.4005 12 61.5005 12C56.5005 12 52.0005 14.2 48.7005 18C47.2005 19.8 46.1005 21.7 45.1005 23.5C44.3005 25.1 43.5005 26.7 42.7005 28.2L42.4005 28.8C34.7005 43.8 27.2005 59 20.3005 74L20.2005 74.2C19.5005 75.8 18.7005 77.5 17.9005 79.3C17.4005 80.4 16.9005 81.6 16.4005 82.9C15.1005 86.6 14.7005 90.1 15.2005 93.7C16.3005 101.2 21.3005 107.5 28.2005 110.3C30.8005 111.4 33.5005 111.9 36.3005 111.9C37.1005 111.9 38.1005 111.8 38.9005 111.7C42.2005 111.3 45.6005 110.2 48.9005 108.3C53.0005 106 56.9005 102.7 61.3005 97.9C65.7005 102.7 69.7005 106 73.7005 108.3C77.0005 110.2 80.4005 111.3 83.7005 111.7C84.5005 111.8 85.5005 111.9 86.3005 111.9C89.1005 111.9 91.9005 111.4 94.4005 110.3C101.401 107.5 106.301 101.1 107.401 93.7C108.201 90.2 107.801 86.7 106.501 83ZM61.4005 88.2C56.0005 81.4 52.5005 75 51.3005 69.6C50.8005 67.3 50.7005 65.3 51.0005 63.5C51.2005 61.9 51.8005 60.5 52.6005 59.3C54.5005 56.6 57.7005 54.9 61.4005 54.9C65.1005 54.9 68.4005 56.5 70.2005 59.3C71.0005 60.5 71.6005 61.9 71.8005 63.5C72.1005 65.3 72.0005 67.4 71.5005 69.6C70.3005 74.9 66.8005 81.3 61.4005 88.2ZM101.301 92.9C100.601 98.1 97.1005 102.6 92.2005 104.6C89.8005 105.6 87.2005 105.9 84.6005 105.6C82.1005 105.3 79.6005 104.5 77.0005 103C73.4005 101 69.8005 97.9 65.6005 93.3C72.2005 85.2 76.2005 77.8 77.7005 71.2C78.4005 68.1 78.5005 65.3 78.2005 62.7C77.8005 60.2 76.9005 57.9 75.5005 55.9C72.4005 51.4 67.2005 48.8 61.4005 48.8C55.6005 48.8 50.4005 51.5 47.3005 55.9C45.9005 57.9 45.0005 60.2 44.6005 62.7C44.2005 65.3 44.3005 68.2 45.1005 71.2C46.6005 77.8 50.7005 85.3 57.2005 93.4C53.1005 98 49.4005 101.1 45.8005 103.1C43.2005 104.6 40.7005 105.4 38.2005 105.7C35.5005 106 32.9005 105.6 30.6005 104.7C25.7005 102.7 22.2005 98.2 21.5005 93C21.2005 90.5 21.4005 88 22.4005 85.2C22.7005 84.2 23.2005 83.2 23.7005 82C24.4005 80.4 25.2005 78.7 26.0005 77L26.1005 76.8C33.0005 61.9 40.4005 46.7 48.1005 31.9L48.4005 31.3C49.2005 29.8 50.0005 28.2 50.8005 26.7C51.6005 25.1 52.5005 23.6 53.6005 22.3C55.7005 19.9 58.5005 18.6 61.6005 18.6C64.7005 18.6 67.5005 19.9 69.6005 22.3C70.7005 23.6 71.6005 25.1 72.4005 26.7C73.2005 28.2 74.0005 29.8 74.8005 31.3L75.1005 31.9C82.7005 46.8 90.1005 62 97.0005 76.9V77C97.8005 78.6 98.5005 80.4 99.3005 82C99.8005 83.2 100.301 84.2 100.601 85.2C101.401 87.8 101.701 90.3 101.301 92.9Z" fill="#FF5A5F"/>
</svg>
