<svg width="1074" height="402" viewBox="0 0 1074 402" fill="none" xmlns="http://www.w3.org/2000/svg">
<path fill-rule="evenodd" clip-rule="evenodd" d="M655.38 294.668C597.268 337.501 513.039 360.354 440.519 360.354C338.834 360.354 247.292 322.745 178.037 260.193C172.596 255.274 177.471 248.57 184.001 252.401C258.74 295.887 351.153 322.048 446.613 322.048C510.993 322.048 581.815 308.728 646.935 281.087C656.773 276.908 665 287.529 655.38 294.668Z" fill="#FF9900"/>
<path fill-rule="evenodd" clip-rule="evenodd" d="M679.54 267.027C672.14 257.538 630.439 262.543 611.721 264.763C606.019 265.46 605.148 260.497 610.285 256.928C643.498 233.553 697.996 240.3 704.352 248.135C710.707 256.014 702.698 310.643 671.487 336.717C666.699 340.722 662.128 338.589 664.261 333.279C671.269 315.78 686.984 276.56 679.54 267.027Z" fill="#FF9900"/>
<path fill-rule="evenodd" clip-rule="evenodd" d="M613.026 91.9086V69.1863C613.026 65.7475 615.637 63.4404 618.772 63.4404H720.5C723.764 63.4404 726.376 65.791 726.376 69.1863V88.6439C726.333 91.9086 723.59 96.1745 718.715 102.922L666.001 178.184C685.589 177.705 706.266 180.621 724.026 190.633C728.03 192.897 729.119 196.205 729.423 199.47V223.716C729.423 227.024 725.767 230.898 721.936 228.896C690.639 212.485 649.068 210.7 614.462 229.07C610.936 230.985 607.236 227.154 607.236 223.846V200.819C607.236 197.119 607.28 190.807 610.98 185.192L672.052 97.611H618.902C615.637 97.611 613.026 95.3039 613.026 91.9086Z" fill="#8E8E8E"/>
<path fill-rule="evenodd" clip-rule="evenodd" d="M241.939 233.684H210.989C208.029 233.466 205.679 231.246 205.461 228.417V69.5781C205.461 66.4004 208.116 63.8757 211.424 63.8757H240.284C243.288 64.0062 245.682 66.3133 245.9 69.1863V89.9498H246.466C253.996 69.8827 268.143 60.5239 287.209 60.5239C306.58 60.5239 318.681 69.8827 327.387 89.9498C334.874 69.8827 351.894 60.5239 370.133 60.5239C383.104 60.5239 397.295 65.878 405.957 77.8921C415.751 91.2557 413.749 110.67 413.749 127.69L413.705 227.938C413.705 231.115 411.05 233.684 407.742 233.684H376.836C373.745 233.466 371.264 230.985 371.264 227.938V143.752C371.264 137.049 371.874 120.333 370.394 113.978C368.087 103.313 361.165 100.31 352.198 100.31C344.711 100.31 336.876 105.316 333.698 113.325C330.521 121.334 330.826 134.741 330.826 143.752V227.938C330.826 231.115 328.17 233.684 324.862 233.684H293.956C290.822 233.466 288.384 230.985 288.384 227.938L288.341 143.752C288.341 126.036 291.257 99.9615 269.275 99.9615C247.032 99.9615 247.902 125.383 247.902 143.752V227.938C247.902 231.115 245.247 233.684 241.939 233.684Z" fill="#8E8E8E"/>
<path fill-rule="evenodd" clip-rule="evenodd" d="M813.958 60.5239C859.881 60.5239 884.736 99.9615 884.736 150.107C884.736 198.556 857.269 236.992 813.958 236.992C768.861 236.992 744.311 197.554 744.311 148.41C744.311 98.9603 769.166 60.5239 813.958 60.5239ZM814.219 92.9533C791.409 92.9533 789.973 124.033 789.973 143.404C789.973 162.818 789.668 204.258 813.958 204.258C837.942 204.258 839.074 170.827 839.074 150.456C839.074 137.049 838.508 121.03 834.46 108.319C830.977 97.2627 824.056 92.9533 814.219 92.9533Z" fill="#8E8E8E"/>
<path fill-rule="evenodd" clip-rule="evenodd" d="M944.286 233.684H913.467C910.376 233.466 907.895 230.985 907.895 227.938L907.852 69.0557C908.113 66.1392 910.681 63.8757 913.815 63.8757H942.501C945.2 64.0062 947.42 65.8345 948.029 68.3157V92.6051H948.595C957.257 70.8839 969.402 60.5239 990.775 60.5239C1004.66 60.5239 1018.2 65.5298 1026.9 79.2416C1035 91.9521 1035 113.325 1035 128.691V228.678C1034.65 231.464 1032.08 233.684 1029.04 233.684H998.001C995.171 233.466 992.821 231.377 992.516 228.678V142.403C992.516 125.034 994.519 99.6133 973.146 99.6133C965.615 99.6133 958.694 104.663 955.255 112.324C950.902 122.031 950.336 131.694 950.336 142.403V227.938C950.293 231.115 947.594 233.684 944.286 233.684Z" fill="#8E8E8E"/>
<path fill-rule="evenodd" clip-rule="evenodd" d="M531.93 157.812C531.93 169.869 532.235 179.925 526.141 190.633C521.222 199.339 513.387 204.693 504.725 204.693C492.841 204.693 485.876 195.639 485.876 182.275C485.876 155.896 509.513 151.108 531.93 151.108V157.812ZM563.141 233.248C561.095 235.076 558.135 235.207 555.828 233.988C545.555 225.456 543.683 221.495 538.068 213.355C521.092 230.68 509.034 235.86 487.052 235.86C460.977 235.86 440.736 219.797 440.736 187.629C440.736 162.513 454.318 145.406 473.732 137.048C490.534 129.648 513.996 128.342 531.93 126.296V122.292C531.93 114.935 532.496 106.229 528.143 99.8741C524.4 94.1717 517.174 91.8211 510.775 91.8211C498.979 91.8211 488.488 97.8717 485.92 110.408C485.397 113.194 483.352 115.936 480.522 116.067L450.53 112.846C448.006 112.28 445.176 110.234 445.916 106.36C452.794 69.9694 485.702 59 515.128 59C530.189 59 549.864 63.0047 561.748 74.4094C576.809 88.4694 575.373 107.231 575.373 127.646V175.876C575.373 190.372 581.38 196.727 587.038 204.562C588.997 207.348 589.433 210.7 586.908 212.789C580.596 218.056 569.365 227.85 563.184 233.335L563.141 233.248Z" fill="#8E8E8E"/>
<path fill-rule="evenodd" clip-rule="evenodd" d="M126.194 157.812C126.194 169.869 126.499 179.925 120.405 190.633C115.486 199.339 107.694 204.693 98.9881 204.693C87.1046 204.693 80.1835 195.639 80.1835 182.275C80.1835 155.896 103.82 151.108 126.194 151.108V157.812ZM157.405 233.248C155.359 235.076 152.399 235.207 150.092 233.988C139.819 225.456 137.99 221.495 132.332 213.355C115.355 230.68 103.341 235.86 81.3152 235.86C55.2847 235.86 35 219.797 35 187.629C35 162.513 48.6247 145.406 67.9952 137.048C84.7976 129.648 108.26 128.342 126.194 126.296V122.292C126.194 114.935 126.76 106.229 122.45 99.8741C118.663 94.1717 111.438 91.8211 105.082 91.8211C93.2858 91.8211 82.7517 97.8717 80.1835 110.408C79.6611 113.194 77.6152 115.936 74.8294 116.067L44.7941 112.846C42.2694 112.28 39.4835 110.234 40.18 106.36C47.1012 69.9694 79.9658 59 109.392 59C124.453 59 144.128 63.0047 156.012 74.4094C171.073 88.4694 169.636 107.231 169.636 127.646V175.876C169.636 190.372 175.643 196.727 181.302 204.562C183.305 207.348 183.74 210.7 181.215 212.789C174.903 218.056 163.673 227.85 157.492 233.335L157.405 233.248Z" fill="#8E8E8E"/>
</svg>
