<svg width="295" height="118" viewBox="0 0 295 118" fill="none" xmlns="http://www.w3.org/2000/svg">
<path d="M126.5 63.18C126.5 75.95 116.51 85.36 104.25 85.36C91.99 85.36 82 75.95 82 63.18C82 50.32 91.99 41 104.25 41C116.51 41 126.5 50.32 126.5 63.18ZM116.76 63.18C116.76 55.2 110.97 49.74 104.25 49.74C97.53 49.74 91.74 55.2 91.74 63.18C91.74 71.08 97.53 76.62 104.25 76.62C110.97 76.62 116.76 71.07 116.76 63.18Z" fill="#EA4335"/>
<path d="M174.5 63.18C174.5 75.95 164.51 85.36 152.25 85.36C139.99 85.36 130 75.95 130 63.18C130 50.33 139.99 41 152.25 41C164.51 41 174.5 50.32 174.5 63.18ZM164.76 63.18C164.76 55.2 158.97 49.74 152.25 49.74C145.53 49.74 139.74 55.2 139.74 63.18C139.74 71.08 145.53 76.62 152.25 76.62C158.97 76.62 164.76 71.07 164.76 63.18Z" fill="#FBBC05"/>
<path d="M220.52 42.34V82.16C220.52 98.54 210.86 105.23 199.44 105.23C188.69 105.23 182.22 98.04 179.78 92.16L188.26 88.63C189.77 92.24 193.47 96.5 199.43 96.5C206.74 96.5 211.27 91.99 211.27 83.5V80.31H210.93C208.75 83 204.55 85.35 199.25 85.35C188.16 85.35 178 75.69 178 63.26C178 50.74 188.16 41 199.25 41C204.54 41 208.74 43.35 210.93 45.96H211.27V42.35H220.52V42.34ZM211.96 63.26C211.96 55.45 206.75 49.74 200.12 49.74C193.4 49.74 187.77 55.45 187.77 63.26C187.77 70.99 193.4 76.62 200.12 76.62C206.75 76.62 211.96 70.99 211.96 63.26Z" fill="#4285F4"/>
<path d="M234.5 19V84H225V19H234.5Z" fill="#34A853"/>
<path d="M270.93 70.49L278.49 75.53C276.05 79.14 270.17 85.36 260.01 85.36C247.41 85.36 238 75.62 238 63.18C238 49.99 247.49 41 258.92 41C270.43 41 276.06 50.16 277.9 55.11L278.91 57.63L249.26 69.91C251.53 74.36 255.06 76.63 260.01 76.63C264.97 76.63 268.41 74.19 270.93 70.49ZM247.66 62.51L267.48 54.28C266.39 51.51 263.11 49.58 259.25 49.58C254.3 49.58 247.41 53.95 247.66 62.51V62.51Z" fill="#EA4335"/>
<path d="M46.2894 56.94V47.53H77.9994C78.3094 49.17 78.4694 51.11 78.4694 53.21C78.4694 60.27 76.5394 69 70.3194 75.22C64.2694 81.52 56.5394 84.88 46.2994 84.88C27.3194 84.88 11.3594 69.42 11.3594 50.44C11.3594 31.46 27.3194 16 46.2994 16C56.7994 16 64.2794 20.12 69.8994 25.49L63.2594 32.13C59.2294 28.35 53.7694 25.41 46.2894 25.41C32.4294 25.41 21.5894 36.58 21.5894 50.44C21.5894 64.3 32.4294 75.47 46.2894 75.47C55.2794 75.47 60.3994 71.86 63.6794 68.58C66.3394 65.92 68.0894 62.12 68.7794 56.93L46.2894 56.94V56.94Z" fill="#4285F4"/>
</svg>
