<svg width="1011" height="413" viewBox="0 0 1011 413" fill="none" xmlns="http://www.w3.org/2000/svg">
<g clip-path="url(#clip0)">
<path d="M94.328 277.809C98.245 288.204 103.668 297.092 110.598 304.473C117.528 311.855 125.738 317.504 135.228 321.421C144.719 325.338 155.038 327.296 166.186 327.296C177.033 327.296 187.201 325.262 196.692 321.194C206.183 317.126 214.468 311.402 221.548 304.021C228.628 296.639 234.127 287.827 238.044 277.583C241.961 267.339 243.919 255.891 243.919 243.236V48H291.372V364.354H244.371V334.978C233.826 346.125 221.397 354.712 207.086 360.739C192.774 366.764 177.334 369.777 160.763 369.777C143.89 369.777 128.148 366.839 113.535 360.964C98.923 355.089 86.268 346.729 75.573 335.882C64.878 325.035 56.441 312.006 50.265 296.79C44.088 281.575 41 264.628 41 245.947V48H88.453V243.236C88.453 255.891 90.411 267.414 94.328 277.809Z" fill="#010202"/>
<path d="M373.168 48V163.243C383.713 152.698 395.916 144.338 409.775 138.161C423.634 131.984 438.699 128.896 454.968 128.896C471.841 128.896 487.657 132.059 502.421 138.386C517.184 144.713 529.988 153.3 540.835 164.147C551.682 174.994 560.269 187.798 566.596 202.561C572.923 217.325 576.086 232.992 576.086 249.563C576.086 266.133 572.923 281.725 566.596 296.337C560.269 310.95 551.682 323.68 540.835 334.525C529.988 345.372 517.184 353.959 502.421 360.286C487.657 366.613 471.84 369.776 454.968 369.776C438.698 369.776 423.559 366.688 409.549 360.511C395.539 354.335 383.261 345.974 372.716 335.429V364.353H327.523V48H373.168ZM378.365 280.746C382.432 290.388 388.082 298.824 395.313 306.055C402.544 313.286 410.98 319.011 420.621 323.229C430.263 327.447 440.657 329.556 451.805 329.556C462.652 329.556 472.895 327.447 482.536 323.229C492.177 319.011 500.537 313.287 507.619 306.055C514.699 298.825 520.348 290.388 524.566 280.746C528.784 271.105 530.893 260.711 530.893 249.563C530.893 238.415 528.784 227.945 524.566 218.153C520.348 208.361 514.699 199.85 507.619 192.619C500.538 185.389 492.178 179.739 482.536 175.672C472.894 171.605 462.651 169.57 451.805 169.57C440.959 169.57 430.715 171.604 421.074 175.672C411.433 179.74 402.997 185.389 395.765 192.619C388.535 199.85 382.81 208.361 378.592 218.153C374.374 227.945 372.265 238.415 372.265 249.563C372.264 260.711 374.298 271.105 378.365 280.746Z" fill="#010202"/>
<path d="M601.842 203.014C607.867 188.552 616.154 175.823 626.698 164.826C637.242 153.829 649.747 145.167 664.209 138.84C678.671 132.513 694.338 129.35 711.21 129.35C727.781 129.35 743.147 132.363 757.308 138.388C771.468 144.414 783.67 152.775 793.914 163.471C804.158 174.166 812.143 186.821 817.866 201.433C823.591 216.046 826.453 231.939 826.453 249.113V264.027H638.901C640.408 273.367 643.421 282.029 647.94 290.012C652.46 297.996 658.108 304.926 664.887 310.801C671.666 316.677 679.349 321.272 687.936 324.585C696.523 327.899 705.636 329.557 715.278 329.557C742.696 329.557 764.841 318.258 781.713 295.661L814.704 320.065C803.255 335.431 789.095 347.483 772.223 356.22C755.35 364.957 736.369 369.326 715.279 369.326C698.105 369.326 682.062 366.312 667.148 360.287C652.234 354.262 639.279 345.825 628.282 334.978C617.285 324.131 608.623 311.402 602.296 296.79C595.969 282.178 592.805 266.284 592.805 249.111C592.803 232.842 595.817 217.476 601.842 203.014ZM665.339 185.162C652.534 195.858 644.023 210.094 639.805 227.87H780.357C776.44 210.094 768.079 195.858 755.274 185.162C742.469 174.467 727.48 169.119 710.307 169.119C693.133 169.119 678.144 174.467 665.339 185.162Z" fill="#010202"/>
<path d="M911.866 190.359C902.225 200.904 897.404 215.215 897.404 233.293V364.355H851.758V133.868H896.951V162.34C902.676 153 910.133 145.618 919.322 140.195C928.511 134.771 939.433 132.059 952.088 132.059H967.905V174.541H948.924C933.86 174.542 921.507 179.814 911.866 190.359Z" fill="#010202"/>
</g>
<defs>
<clipPath id="clip0">
<rect width="1011" height="413" fill="white"/>
</clipPath>
</defs>
</svg>
